ISO-10303-21;
HEADER;
/* Generated by software containing ST-Developer
 * from STEP Tools, Inc. (www.steptools.com) 
 */
/* OPTION: using custom renumber hook */

FILE_DESCRIPTION(
/* description */ ('STEP AP242 Edition 2',
'CAx-IF Rec.Pracs.---Representation and Presentation of Product Manufa
cturing Information (PMI)---4.0---2014-10-13',
'CAx-IF Rec.Pracs.---3D Tessellated Geometry---0.4---2014-09-14','2;1',
'CAx-IF Rec.Pracs.---User Defined Attributes---1.5---2016-08-15'),
/* implementation_level */ '2;1');

FILE_NAME(
/* name */ 'Layers - Part 3',
/* time_stamp */ '2026-08-07T11:15:34Z',
/* author */ (''),
/* organization */ (''),
/* preprocessor_version */ 'ST-DEVELOPER v20',
/* originating_system */ 'ONSHAPE BY PTC INC, 1.218',
/* authorisation */ '  ');

FILE_SCHEMA (('AP242_MANAGED_MODEL_BASED_3D_ENGINEERING_MIM_LF { 1 0 10303 442 3 1 4 }'));
ENDSEC;

DATA;
#10=SHAPE_REPRESENTATION_RELATIONSHIP('','',#437,#11);
#11=ADVANCED_BREP_SHAPE_REPRESENTATION('',(#435),#739);
#12=CYLINDRICAL_SURFACE('',#466,0.01651);
#13=CYLINDRICAL_SURFACE('',#468,0.01651);
#14=CYLINDRICAL_SURFACE('',#470,0.01651);
#15=CYLINDRICAL_SURFACE('',#472,0.01651);
#16=CYLINDRICAL_SURFACE('',#474,0.002493645);
#17=CYLINDRICAL_SURFACE('',#476,0.002493645);
#18=CYLINDRICAL_SURFACE('',#478,0.002493645);
#19=CYLINDRICAL_SURFACE('',#480,0.002493645);
#20=CYLINDRICAL_SURFACE('',#481,0.0478045795806125);
#21=CYLINDRICAL_SURFACE('',#482,0.00381);
#22=CYLINDRICAL_SURFACE('',#483,0.0401845795806125);
#23=CYLINDRICAL_SURFACE('',#484,0.00381);
#24=LINE('',#625,#60);
#25=LINE('',#630,#61);
#26=LINE('',#634,#62);
#27=LINE('',#638,#63);
#28=LINE('',#644,#64);
#29=LINE('',#648,#65);
#30=LINE('',#652,#66);
#31=LINE('',#656,#67);
#32=LINE('',#666,#68);
#33=LINE('',#671,#69);
#34=LINE('',#675,#70);
#35=LINE('',#679,#71);
#36=LINE('',#682,#72);
#37=LINE('',#687,#73);
#38=LINE('',#691,#74);
#39=LINE('',#695,#75);
#40=LINE('',#699,#76);
#41=LINE('',#700,#77);
#42=LINE('',#702,#78);
#43=LINE('',#704,#79);
#44=LINE('',#706,#80);
#45=LINE('',#708,#81);
#46=LINE('',#710,#82);
#47=LINE('',#712,#83);
#48=LINE('',#715,#84);
#49=LINE('',#716,#85);
#50=LINE('',#718,#86);
#51=LINE('',#720,#87);
#52=LINE('',#722,#88);
#53=LINE('',#724,#89);
#54=LINE('',#726,#90);
#55=LINE('',#728,#91);
#56=LINE('',#731,#92);
#57=LINE('',#732,#93);
#58=LINE('',#734,#94);
#59=LINE('',#736,#95);
#60=VECTOR('',#497,1.);
#61=VECTOR('',#500,1.);
#62=VECTOR('',#503,1.);
#63=VECTOR('',#506,1.);
#64=VECTOR('',#511,1.);
#65=VECTOR('',#514,1.);
#66=VECTOR('',#517,1.);
#67=VECTOR('',#520,1.);
#68=VECTOR('',#531,1.);
#69=VECTOR('',#534,1.);
#70=VECTOR('',#537,1.);
#71=VECTOR('',#540,1.);
#72=VECTOR('',#543,1.);
#73=VECTOR('',#546,1.);
#74=VECTOR('',#549,1.);
#75=VECTOR('',#552,1.);
#76=VECTOR('',#557,1.);
#77=VECTOR('',#558,1.);
#78=VECTOR('',#561,1.);
#79=VECTOR('',#564,1.);
#80=VECTOR('',#567,1.);
#81=VECTOR('',#570,1.);
#82=VECTOR('',#573,1.);
#83=VECTOR('',#576,1.);
#84=VECTOR('',#581,1.);
#85=VECTOR('',#582,1.);
#86=VECTOR('',#585,1.);
#87=VECTOR('',#588,1.);
#88=VECTOR('',#591,1.);
#89=VECTOR('',#594,1.);
#90=VECTOR('',#597,1.);
#91=VECTOR('',#600,1.);
#92=VECTOR('',#605,1.);
#93=VECTOR('',#606,1.);
#94=VECTOR('',#609,1.);
#95=VECTOR('',#612,1.);
#96=ORIENTED_EDGE('',*,*,#216,.T.);
#97=ORIENTED_EDGE('',*,*,#217,.T.);
#98=ORIENTED_EDGE('',*,*,#218,.T.);
#99=ORIENTED_EDGE('',*,*,#219,.F.);
#100=ORIENTED_EDGE('',*,*,#220,.F.);
#101=ORIENTED_EDGE('',*,*,#221,.T.);
#102=ORIENTED_EDGE('',*,*,#222,.F.);
#103=ORIENTED_EDGE('',*,*,#223,.T.);
#104=ORIENTED_EDGE('',*,*,#224,.T.);
#105=ORIENTED_EDGE('',*,*,#225,.T.);
#106=ORIENTED_EDGE('',*,*,#226,.T.);
#107=ORIENTED_EDGE('',*,*,#227,.T.);
#108=ORIENTED_EDGE('',*,*,#228,.F.);
#109=ORIENTED_EDGE('',*,*,#229,.T.);
#110=ORIENTED_EDGE('',*,*,#230,.F.);
#111=ORIENTED_EDGE('',*,*,#231,.T.);
#112=ORIENTED_EDGE('',*,*,#232,.F.);
#113=ORIENTED_EDGE('',*,*,#233,.F.);
#114=ORIENTED_EDGE('',*,*,#234,.F.);
#115=ORIENTED_EDGE('',*,*,#235,.F.);
#116=ORIENTED_EDGE('',*,*,#236,.T.);
#117=ORIENTED_EDGE('',*,*,#237,.T.);
#118=ORIENTED_EDGE('',*,*,#238,.F.);
#119=ORIENTED_EDGE('',*,*,#239,.T.);
#120=ORIENTED_EDGE('',*,*,#240,.T.);
#121=ORIENTED_EDGE('',*,*,#241,.F.);
#122=ORIENTED_EDGE('',*,*,#242,.F.);
#123=ORIENTED_EDGE('',*,*,#243,.F.);
#124=ORIENTED_EDGE('',*,*,#244,.F.);
#125=ORIENTED_EDGE('',*,*,#245,.F.);
#126=ORIENTED_EDGE('',*,*,#246,.T.);
#127=ORIENTED_EDGE('',*,*,#247,.F.);
#128=ORIENTED_EDGE('',*,*,#248,.F.);
#129=ORIENTED_EDGE('',*,*,#249,.T.);
#130=ORIENTED_EDGE('',*,*,#250,.T.);
#131=ORIENTED_EDGE('',*,*,#251,.T.);
#132=ORIENTED_EDGE('',*,*,#252,.T.);
#133=ORIENTED_EDGE('',*,*,#253,.T.);
#134=ORIENTED_EDGE('',*,*,#254,.F.);
#135=ORIENTED_EDGE('',*,*,#255,.T.);
#136=ORIENTED_EDGE('',*,*,#240,.F.);
#137=ORIENTED_EDGE('',*,*,#256,.F.);
#138=ORIENTED_EDGE('',*,*,#220,.T.);
#139=ORIENTED_EDGE('',*,*,#257,.T.);
#140=ORIENTED_EDGE('',*,*,#247,.T.);
#141=ORIENTED_EDGE('',*,*,#258,.F.);
#142=ORIENTED_EDGE('',*,*,#221,.F.);
#143=ORIENTED_EDGE('',*,*,#256,.T.);
#144=ORIENTED_EDGE('',*,*,#246,.F.);
#145=ORIENTED_EDGE('',*,*,#259,.F.);
#146=ORIENTED_EDGE('',*,*,#222,.T.);
#147=ORIENTED_EDGE('',*,*,#258,.T.);
#148=ORIENTED_EDGE('',*,*,#245,.T.);
#149=ORIENTED_EDGE('',*,*,#260,.F.);
#150=ORIENTED_EDGE('',*,*,#223,.F.);
#151=ORIENTED_EDGE('',*,*,#259,.T.);
#152=ORIENTED_EDGE('',*,*,#244,.T.);
#153=ORIENTED_EDGE('',*,*,#261,.F.);
#154=ORIENTED_EDGE('',*,*,#224,.F.);
#155=ORIENTED_EDGE('',*,*,#260,.T.);
#156=ORIENTED_EDGE('',*,*,#243,.T.);
#157=ORIENTED_EDGE('',*,*,#262,.F.);
#158=ORIENTED_EDGE('',*,*,#225,.F.);
#159=ORIENTED_EDGE('',*,*,#261,.T.);
#160=ORIENTED_EDGE('',*,*,#242,.T.);
#161=ORIENTED_EDGE('',*,*,#263,.F.);
#162=ORIENTED_EDGE('',*,*,#226,.F.);
#163=ORIENTED_EDGE('',*,*,#262,.T.);
#164=ORIENTED_EDGE('',*,*,#241,.T.);
#165=ORIENTED_EDGE('',*,*,#257,.F.);
#166=ORIENTED_EDGE('',*,*,#227,.F.);
#167=ORIENTED_EDGE('',*,*,#263,.T.);
#168=ORIENTED_EDGE('',*,*,#264,.F.);
#169=ORIENTED_EDGE('',*,*,#248,.T.);
#170=ORIENTED_EDGE('',*,*,#265,.T.);
#171=ORIENTED_EDGE('',*,*,#229,.F.);
#172=ORIENTED_EDGE('',*,*,#228,.T.);
#173=ORIENTED_EDGE('',*,*,#266,.F.);
#174=ORIENTED_EDGE('',*,*,#249,.F.);
#175=ORIENTED_EDGE('',*,*,#264,.T.);
#176=ORIENTED_EDGE('',*,*,#235,.T.);
#177=ORIENTED_EDGE('',*,*,#267,.F.);
#178=ORIENTED_EDGE('',*,*,#250,.F.);
#179=ORIENTED_EDGE('',*,*,#266,.T.);
#180=ORIENTED_EDGE('',*,*,#234,.T.);
#181=ORIENTED_EDGE('',*,*,#268,.F.);
#182=ORIENTED_EDGE('',*,*,#251,.F.);
#183=ORIENTED_EDGE('',*,*,#267,.T.);
#184=ORIENTED_EDGE('',*,*,#233,.T.);
#185=ORIENTED_EDGE('',*,*,#269,.F.);
#186=ORIENTED_EDGE('',*,*,#252,.F.);
#187=ORIENTED_EDGE('',*,*,#268,.T.);
#188=ORIENTED_EDGE('',*,*,#232,.T.);
#189=ORIENTED_EDGE('',*,*,#270,.F.);
#190=ORIENTED_EDGE('',*,*,#253,.F.);
#191=ORIENTED_EDGE('',*,*,#269,.T.);
#192=ORIENTED_EDGE('',*,*,#271,.F.);
#193=ORIENTED_EDGE('',*,*,#254,.T.);
#194=ORIENTED_EDGE('',*,*,#270,.T.);
#195=ORIENTED_EDGE('',*,*,#231,.F.);
#196=ORIENTED_EDGE('',*,*,#230,.T.);
#197=ORIENTED_EDGE('',*,*,#265,.F.);
#198=ORIENTED_EDGE('',*,*,#255,.F.);
#199=ORIENTED_EDGE('',*,*,#271,.T.);
#200=ORIENTED_EDGE('',*,*,#272,.T.);
#201=ORIENTED_EDGE('',*,*,#236,.F.);
#202=ORIENTED_EDGE('',*,*,#273,.F.);
#203=ORIENTED_EDGE('',*,*,#217,.F.);
#204=ORIENTED_EDGE('',*,*,#273,.T.);
#205=ORIENTED_EDGE('',*,*,#239,.F.);
#206=ORIENTED_EDGE('',*,*,#274,.F.);
#207=ORIENTED_EDGE('',*,*,#218,.F.);
#208=ORIENTED_EDGE('',*,*,#219,.T.);
#209=ORIENTED_EDGE('',*,*,#274,.T.);
#210=ORIENTED_EDGE('',*,*,#238,.T.);
#211=ORIENTED_EDGE('',*,*,#275,.F.);
#212=ORIENTED_EDGE('',*,*,#275,.T.);
#213=ORIENTED_EDGE('',*,*,#237,.F.);
#214=ORIENTED_EDGE('',*,*,#272,.F.);
#215=ORIENTED_EDGE('',*,*,#216,.F.);
#216=EDGE_CURVE('',#276,#277,#316,.F.);
#217=EDGE_CURVE('',#277,#278,#317,.F.);
#218=EDGE_CURVE('',#278,#279,#318,.F.);
#219=EDGE_CURVE('',#276,#279,#319,.F.);
#220=EDGE_CURVE('',#280,#281,#24,.T.);
#221=EDGE_CURVE('',#280,#282,#320,.T.);
#222=EDGE_CURVE('',#283,#282,#25,.T.);
#223=EDGE_CURVE('',#283,#284,#321,.T.);
#224=EDGE_CURVE('',#284,#285,#26,.T.);
#225=EDGE_CURVE('',#285,#286,#322,.T.);
#226=EDGE_CURVE('',#286,#287,#27,.T.);
#227=EDGE_CURVE('',#287,#281,#323,.T.);
#228=EDGE_CURVE('',#288,#289,#324,.T.);
#229=EDGE_CURVE('',#288,#290,#28,.T.);
#230=EDGE_CURVE('',#291,#290,#325,.T.);
#231=EDGE_CURVE('',#291,#292,#29,.T.);
#232=EDGE_CURVE('',#293,#292,#326,.T.);
#233=EDGE_CURVE('',#294,#293,#30,.T.);
#234=EDGE_CURVE('',#295,#294,#327,.T.);
#235=EDGE_CURVE('',#289,#295,#31,.T.);
#236=EDGE_CURVE('',#296,#297,#328,.T.);
#237=EDGE_CURVE('',#297,#298,#329,.T.);
#238=EDGE_CURVE('',#299,#298,#330,.T.);
#239=EDGE_CURVE('',#299,#296,#331,.T.);
#240=EDGE_CURVE('',#300,#301,#32,.T.);
#241=EDGE_CURVE('',#302,#301,#332,.T.);
#242=EDGE_CURVE('',#303,#302,#33,.T.);
#243=EDGE_CURVE('',#304,#303,#333,.T.);
#244=EDGE_CURVE('',#305,#304,#34,.T.);
#245=EDGE_CURVE('',#306,#305,#334,.T.);
#246=EDGE_CURVE('',#306,#307,#35,.T.);
#247=EDGE_CURVE('',#300,#307,#335,.T.);
#248=EDGE_CURVE('',#308,#309,#36,.T.);
#249=EDGE_CURVE('',#308,#310,#336,.T.);
#250=EDGE_CURVE('',#310,#311,#37,.T.);
#251=EDGE_CURVE('',#311,#312,#337,.T.);
#252=EDGE_CURVE('',#312,#313,#38,.T.);
#253=EDGE_CURVE('',#313,#314,#338,.T.);
#254=EDGE_CURVE('',#315,#314,#39,.T.);
#255=EDGE_CURVE('',#315,#309,#339,.T.);
#256=EDGE_CURVE('',#280,#300,#40,.T.);
#257=EDGE_CURVE('',#281,#301,#41,.T.);
#258=EDGE_CURVE('',#282,#307,#42,.T.);
#259=EDGE_CURVE('',#283,#306,#43,.T.);
#260=EDGE_CURVE('',#284,#305,#44,.T.);
#261=EDGE_CURVE('',#285,#304,#45,.T.);
#262=EDGE_CURVE('',#286,#303,#46,.T.);
#263=EDGE_CURVE('',#287,#302,#47,.T.);
#264=EDGE_CURVE('',#308,#288,#48,.T.);
#265=EDGE_CURVE('',#309,#290,#49,.T.);
#266=EDGE_CURVE('',#310,#289,#50,.T.);
#267=EDGE_CURVE('',#311,#295,#51,.T.);
#268=EDGE_CURVE('',#312,#294,#52,.T.);
#269=EDGE_CURVE('',#313,#293,#53,.T.);
#270=EDGE_CURVE('',#314,#292,#54,.T.);
#271=EDGE_CURVE('',#315,#291,#55,.T.);
#272=EDGE_CURVE('',#277,#297,#56,.T.);
#273=EDGE_CURVE('',#278,#296,#57,.T.);
#274=EDGE_CURVE('',#279,#299,#58,.T.);
#275=EDGE_CURVE('',#276,#298,#59,.T.);
#276=VERTEX_POINT('',#618);
#277=VERTEX_POINT('',#619);
#278=VERTEX_POINT('',#621);
#279=VERTEX_POINT('',#623);
#280=VERTEX_POINT('',#626);
#281=VERTEX_POINT('',#627);
#282=VERTEX_POINT('',#629);
#283=VERTEX_POINT('',#631);
#284=VERTEX_POINT('',#633);
#285=VERTEX_POINT('',#635);
#286=VERTEX_POINT('',#637);
#287=VERTEX_POINT('',#639);
#288=VERTEX_POINT('',#642);
#289=VERTEX_POINT('',#643);
#290=VERTEX_POINT('',#645);
#291=VERTEX_POINT('',#647);
#292=VERTEX_POINT('',#649);
#293=VERTEX_POINT('',#651);
#294=VERTEX_POINT('',#653);
#295=VERTEX_POINT('',#655);
#296=VERTEX_POINT('',#659);
#297=VERTEX_POINT('',#660);
#298=VERTEX_POINT('',#662);
#299=VERTEX_POINT('',#664);
#300=VERTEX_POINT('',#667);
#301=VERTEX_POINT('',#668);
#302=VERTEX_POINT('',#670);
#303=VERTEX_POINT('',#672);
#304=VERTEX_POINT('',#674);
#305=VERTEX_POINT('',#676);
#306=VERTEX_POINT('',#678);
#307=VERTEX_POINT('',#680);
#308=VERTEX_POINT('',#683);
#309=VERTEX_POINT('',#684);
#310=VERTEX_POINT('',#686);
#311=VERTEX_POINT('',#688);
#312=VERTEX_POINT('',#690);
#313=VERTEX_POINT('',#692);
#314=VERTEX_POINT('',#694);
#315=VERTEX_POINT('',#696);
#316=CIRCLE('',#440,0.00381);
#317=CIRCLE('',#441,0.0478045795806125);
#318=CIRCLE('',#442,0.00381);
#319=CIRCLE('',#443,0.0401845795806125);
#320=CIRCLE('',#444,0.01651);
#321=CIRCLE('',#445,0.01651);
#322=CIRCLE('',#446,0.01651);
#323=CIRCLE('',#447,0.01651);
#324=CIRCLE('',#448,0.002493645);
#325=CIRCLE('',#449,0.002493645);
#326=CIRCLE('',#450,0.002493645);
#327=CIRCLE('',#451,0.002493645);
#328=CIRCLE('',#453,0.0478045795806125);
#329=CIRCLE('',#454,0.00381);
#330=CIRCLE('',#455,0.0401845795806125);
#331=CIRCLE('',#456,0.00381);
#332=CIRCLE('',#457,0.01651);
#333=CIRCLE('',#458,0.01651);
#334=CIRCLE('',#459,0.01651);
#335=CIRCLE('',#460,0.01651);
#336=CIRCLE('',#461,0.002493645);
#337=CIRCLE('',#462,0.002493645);
#338=CIRCLE('',#463,0.002493645);
#339=CIRCLE('',#464,0.002493645);
#340=EDGE_LOOP('',(#96,#97,#98,#99));
#341=EDGE_LOOP('',(#100,#101,#102,#103,#104,#105,#106,#107));
#342=EDGE_LOOP('',(#108,#109,#110,#111,#112,#113,#114,#115));
#343=EDGE_LOOP('',(#116,#117,#118,#119));
#344=EDGE_LOOP('',(#120,#121,#122,#123,#124,#125,#126,#127));
#345=EDGE_LOOP('',(#128,#129,#130,#131,#132,#133,#134,#135));
#346=EDGE_LOOP('',(#136,#137,#138,#139));
#347=EDGE_LOOP('',(#140,#141,#142,#143));
#348=EDGE_LOOP('',(#144,#145,#146,#147));
#349=EDGE_LOOP('',(#148,#149,#150,#151));
#350=EDGE_LOOP('',(#152,#153,#154,#155));
#351=EDGE_LOOP('',(#156,#157,#158,#159));
#352=EDGE_LOOP('',(#160,#161,#162,#163));
#353=EDGE_LOOP('',(#164,#165,#166,#167));
#354=EDGE_LOOP('',(#168,#169,#170,#171));
#355=EDGE_LOOP('',(#172,#173,#174,#175));
#356=EDGE_LOOP('',(#176,#177,#178,#179));
#357=EDGE_LOOP('',(#180,#181,#182,#183));
#358=EDGE_LOOP('',(#184,#185,#186,#187));
#359=EDGE_LOOP('',(#188,#189,#190,#191));
#360=EDGE_LOOP('',(#192,#193,#194,#195));
#361=EDGE_LOOP('',(#196,#197,#198,#199));
#362=EDGE_LOOP('',(#200,#201,#202,#203));
#363=EDGE_LOOP('',(#204,#205,#206,#207));
#364=EDGE_LOOP('',(#208,#209,#210,#211));
#365=EDGE_LOOP('',(#212,#213,#214,#215));
#366=FACE_BOUND('',#340,.T.);
#367=FACE_BOUND('',#341,.T.);
#368=FACE_BOUND('',#342,.T.);
#369=FACE_BOUND('',#343,.T.);
#370=FACE_BOUND('',#344,.T.);
#371=FACE_BOUND('',#345,.T.);
#372=FACE_BOUND('',#346,.T.);
#373=FACE_BOUND('',#347,.T.);
#374=FACE_BOUND('',#348,.T.);
#375=FACE_BOUND('',#349,.T.);
#376=FACE_BOUND('',#350,.T.);
#377=FACE_BOUND('',#351,.T.);
#378=FACE_BOUND('',#352,.T.);
#379=FACE_BOUND('',#353,.T.);
#380=FACE_BOUND('',#354,.T.);
#381=FACE_BOUND('',#355,.T.);
#382=FACE_BOUND('',#356,.T.);
#383=FACE_BOUND('',#357,.T.);
#384=FACE_BOUND('',#358,.T.);
#385=FACE_BOUND('',#359,.T.);
#386=FACE_BOUND('',#360,.T.);
#387=FACE_BOUND('',#361,.T.);
#388=FACE_BOUND('',#362,.T.);
#389=FACE_BOUND('',#363,.T.);
#390=FACE_BOUND('',#364,.T.);
#391=FACE_BOUND('',#365,.T.);
#392=PLANE('',#439);
#393=PLANE('',#452);
#394=PLANE('',#465);
#395=PLANE('',#467);
#396=PLANE('',#469);
#397=PLANE('',#471);
#398=PLANE('',#473);
#399=PLANE('',#475);
#400=PLANE('',#477);
#401=PLANE('',#479);
#402=ADVANCED_FACE('',(#366,#367,#368),#392,.T.);
#403=ADVANCED_FACE('',(#369,#370,#371),#393,.F.);
#404=ADVANCED_FACE('',(#372),#394,.T.);
#405=ADVANCED_FACE('',(#373),#12,.T.);
#406=ADVANCED_FACE('',(#374),#395,.T.);
#407=ADVANCED_FACE('',(#375),#13,.T.);
#408=ADVANCED_FACE('',(#376),#396,.F.);
#409=ADVANCED_FACE('',(#377),#14,.T.);
#410=ADVANCED_FACE('',(#378),#397,.F.);
#411=ADVANCED_FACE('',(#379),#15,.T.);
#412=ADVANCED_FACE('',(#380),#398,.T.);
#413=ADVANCED_FACE('',(#381),#16,.F.);
#414=ADVANCED_FACE('',(#382),#399,.F.);
#415=ADVANCED_FACE('',(#383),#17,.F.);
#416=ADVANCED_FACE('',(#384),#400,.F.);
#417=ADVANCED_FACE('',(#385),#18,.F.);
#418=ADVANCED_FACE('',(#386),#401,.T.);
#419=ADVANCED_FACE('',(#387),#19,.F.);
#420=ADVANCED_FACE('',(#388),#20,.F.);
#421=ADVANCED_FACE('',(#389),#21,.F.);
#422=ADVANCED_FACE('',(#390),#22,.T.);
#423=ADVANCED_FACE('',(#391),#23,.F.);
#424=CLOSED_SHELL('',(#402,#403,#404,#405,#406,#407,#408,#409,#410,#411,
#412,#413,#414,#415,#416,#417,#418,#419,#420,#421,#422,#423));
#425=STYLED_ITEM('',(#426),#435);
#426=PRESENTATION_STYLE_ASSIGNMENT((#427));
#427=SURFACE_STYLE_USAGE(.BOTH.,#428);
#428=SURFACE_SIDE_STYLE('',(#431,#429));
#429=SURFACE_STYLE_RENDERING_WITH_PROPERTIES(.CONSTANT_SHADING.,#434,(#430));
#430=SURFACE_STYLE_TRANSPARENT(0.172549019607843);
#431=SURFACE_STYLE_FILL_AREA(#432);
#432=FILL_AREA_STYLE('',(#433));
#433=FILL_AREA_STYLE_COLOUR('',#434);
#434=COLOUR_RGB('',0.0627450980392157,0.266666666666666,0.490196078431373);
#435=MANIFOLD_SOLID_BREP('Part 3',#424);
#436=SHAPE_DEFINITION_REPRESENTATION(#744,#437);
#437=SHAPE_REPRESENTATION('Part 3',(#438),#739);
#438=AXIS2_PLACEMENT_3D('',#615,#485,#486);
#439=AXIS2_PLACEMENT_3D('',#616,#487,#488);
#440=AXIS2_PLACEMENT_3D('',#617,#489,#490);
#441=AXIS2_PLACEMENT_3D('',#620,#491,#492);
#442=AXIS2_PLACEMENT_3D('',#622,#493,#494);
#443=AXIS2_PLACEMENT_3D('',#624,#495,#496);
#444=AXIS2_PLACEMENT_3D('',#628,#498,#499);
#445=AXIS2_PLACEMENT_3D('',#632,#501,#502);
#446=AXIS2_PLACEMENT_3D('',#636,#504,#505);
#447=AXIS2_PLACEMENT_3D('',#640,#507,#508);
#448=AXIS2_PLACEMENT_3D('',#641,#509,#510);
#449=AXIS2_PLACEMENT_3D('',#646,#512,#513);
#450=AXIS2_PLACEMENT_3D('',#650,#515,#516);
#451=AXIS2_PLACEMENT_3D('',#654,#518,#519);
#452=AXIS2_PLACEMENT_3D('',#657,#521,#522);
#453=AXIS2_PLACEMENT_3D('',#658,#523,#524);
#454=AXIS2_PLACEMENT_3D('',#661,#525,#526);
#455=AXIS2_PLACEMENT_3D('',#663,#527,#528);
#456=AXIS2_PLACEMENT_3D('',#665,#529,#530);
#457=AXIS2_PLACEMENT_3D('',#669,#532,#533);
#458=AXIS2_PLACEMENT_3D('',#673,#535,#536);
#459=AXIS2_PLACEMENT_3D('',#677,#538,#539);
#460=AXIS2_PLACEMENT_3D('',#681,#541,#542);
#461=AXIS2_PLACEMENT_3D('',#685,#544,#545);
#462=AXIS2_PLACEMENT_3D('',#689,#547,#548);
#463=AXIS2_PLACEMENT_3D('',#693,#550,#551);
#464=AXIS2_PLACEMENT_3D('',#697,#553,#554);
#465=AXIS2_PLACEMENT_3D('',#698,#555,#556);
#466=AXIS2_PLACEMENT_3D('',#701,#559,#560);
#467=AXIS2_PLACEMENT_3D('',#703,#562,#563);
#468=AXIS2_PLACEMENT_3D('',#705,#565,#566);
#469=AXIS2_PLACEMENT_3D('',#707,#568,#569);
#470=AXIS2_PLACEMENT_3D('',#709,#571,#572);
#471=AXIS2_PLACEMENT_3D('',#711,#574,#575);
#472=AXIS2_PLACEMENT_3D('',#713,#577,#578);
#473=AXIS2_PLACEMENT_3D('',#714,#579,#580);
#474=AXIS2_PLACEMENT_3D('',#717,#583,#584);
#475=AXIS2_PLACEMENT_3D('',#719,#586,#587);
#476=AXIS2_PLACEMENT_3D('',#721,#589,#590);
#477=AXIS2_PLACEMENT_3D('',#723,#592,#593);
#478=AXIS2_PLACEMENT_3D('',#725,#595,#596);
#479=AXIS2_PLACEMENT_3D('',#727,#598,#599);
#480=AXIS2_PLACEMENT_3D('',#729,#601,#602);
#481=AXIS2_PLACEMENT_3D('',#730,#603,#604);
#482=AXIS2_PLACEMENT_3D('',#733,#607,#608);
#483=AXIS2_PLACEMENT_3D('',#735,#610,#611);
#484=AXIS2_PLACEMENT_3D('',#737,#613,#614);
#485=DIRECTION('',(0.,0.,1.));
#486=DIRECTION('',(1.,0.,0.));
#487=DIRECTION('',(0.,0.,1.));
#488=DIRECTION('',(1.,0.,0.));
#489=DIRECTION('',(0.,0.,1.));
#490=DIRECTION('',(1.,0.,0.));
#491=DIRECTION('',(0.,0.,1.));
#492=DIRECTION('',(1.,0.,0.));
#493=DIRECTION('',(0.,0.,1.));
#494=DIRECTION('',(1.,0.,0.));
#495=DIRECTION('',(0.,0.,1.));
#496=DIRECTION('',(1.,0.,0.));
#497=DIRECTION('',(-1.,0.,0.));
#498=DIRECTION('',(0.,0.,1.));
#499=DIRECTION('',(1.,0.,0.));
#500=DIRECTION('',(1.9904174817226E-16,-1.,0.));
#501=DIRECTION('',(0.,0.,1.));
#502=DIRECTION('',(1.,0.,0.));
#503=DIRECTION('',(-1.,0.,0.));
#504=DIRECTION('',(0.,0.,1.));
#505=DIRECTION('',(1.,0.,0.));
#506=DIRECTION('',(1.9904174817226E-16,-1.,0.));
#507=DIRECTION('',(0.,0.,1.));
#508=DIRECTION('',(1.,0.,0.));
#509=DIRECTION('',(0.,0.,1.));
#510=DIRECTION('',(1.,0.,0.));
#511=DIRECTION('',(-0.138820323778016,-0.990317584265859,0.));
#512=DIRECTION('',(0.,0.,1.));
#513=DIRECTION('',(1.,0.,0.));
#514=DIRECTION('',(-1.,-1.81430997492452E-14,0.));
#515=DIRECTION('',(0.,0.,1.));
#516=DIRECTION('',(1.,0.,0.));
#517=DIRECTION('',(0.138820323778016,-0.990317584265859,0.));
#518=DIRECTION('',(0.,0.,1.));
#519=DIRECTION('',(1.,0.,0.));
#520=DIRECTION('',(-1.,0.,0.));
#521=DIRECTION('',(0.,0.,1.));
#522=DIRECTION('',(1.,0.,0.));
#523=DIRECTION('',(0.,0.,1.));
#524=DIRECTION('',(-1.,0.,0.));
#525=DIRECTION('',(0.,0.,1.));
#526=DIRECTION('',(-1.,0.,0.));
#527=DIRECTION('',(0.,0.,1.));
#528=DIRECTION('',(-1.,0.,0.));
#529=DIRECTION('',(0.,0.,1.));
#530=DIRECTION('',(-1.,0.,0.));
#531=DIRECTION('',(-1.,0.,0.));
#532=DIRECTION('',(0.,0.,1.));
#533=DIRECTION('',(1.,0.,0.));
#534=DIRECTION('',(1.9904174817226E-16,-1.,0.));
#535=DIRECTION('',(0.,0.,1.));
#536=DIRECTION('',(1.,0.,0.));
#537=DIRECTION('',(-1.,0.,0.));
#538=DIRECTION('',(0.,0.,1.));
#539=DIRECTION('',(1.,0.,0.));
#540=DIRECTION('',(1.9904174817226E-16,-1.,0.));
#541=DIRECTION('',(0.,0.,1.));
#542=DIRECTION('',(1.,0.,0.));
#543=DIRECTION('',(-0.138820323778016,-0.990317584265859,0.));
#544=DIRECTION('',(0.,0.,1.));
#545=DIRECTION('',(1.,0.,0.));
#546=DIRECTION('',(-1.,0.,0.));
#547=DIRECTION('',(0.,0.,1.));
#548=DIRECTION('',(1.,0.,0.));
#549=DIRECTION('',(0.138820323778016,-0.990317584265859,0.));
#550=DIRECTION('',(0.,0.,1.));
#551=DIRECTION('',(1.,0.,0.));
#552=DIRECTION('',(-1.,-1.81430997492452E-14,0.));
#553=DIRECTION('',(0.,0.,1.));
#554=DIRECTION('',(1.,0.,0.));
#555=DIRECTION('',(0.,-1.,0.));
#556=DIRECTION('',(0.,0.,-1.));
#557=DIRECTION('',(0.,0.,-1.));
#558=DIRECTION('',(0.,0.,-1.));
#559=DIRECTION('',(0.,0.,-1.));
#560=DIRECTION('',(-1.,0.,0.));
#561=DIRECTION('',(0.,0.,-1.));
#562=DIRECTION('',(1.,1.9904174817226E-16,0.));
#563=DIRECTION('',(-1.9904174817226E-16,1.,0.));
#564=DIRECTION('',(0.,0.,-1.));
#565=DIRECTION('',(0.,0.,-1.));
#566=DIRECTION('',(-1.,0.,0.));
#567=DIRECTION('',(0.,0.,-1.));
#568=DIRECTION('',(0.,-1.,0.));
#569=DIRECTION('',(0.,0.,-1.));
#570=DIRECTION('',(0.,0.,-1.));
#571=DIRECTION('',(0.,0.,-1.));
#572=DIRECTION('',(-1.,0.,0.));
#573=DIRECTION('',(0.,0.,-1.));
#574=DIRECTION('',(1.,1.9904174817226E-16,0.));
#575=DIRECTION('',(-1.9904174817226E-16,1.,0.));
#576=DIRECTION('',(0.,0.,-1.));
#577=DIRECTION('',(0.,0.,-1.));
#578=DIRECTION('',(-1.,0.,0.));
#579=DIRECTION('',(-0.990317584265859,0.138820323778016,0.));
#580=DIRECTION('',(-0.138820323778016,-0.990317584265859,0.));
#581=DIRECTION('',(0.,0.,1.));
#582=DIRECTION('',(0.,0.,1.));
#583=DIRECTION('',(0.,0.,1.));
#584=DIRECTION('',(1.,0.,0.));
#585=DIRECTION('',(0.,0.,1.));
#586=DIRECTION('',(0.,1.,0.));
#587=DIRECTION('',(0.,0.,1.));
#588=DIRECTION('',(0.,0.,1.));
#589=DIRECTION('',(0.,0.,1.));
#590=DIRECTION('',(1.,0.,0.));
#591=DIRECTION('',(0.,0.,1.));
#592=DIRECTION('',(-0.990317584265859,-0.138820323778016,0.));
#593=DIRECTION('',(0.138820323778016,-0.990317584265859,0.));
#594=DIRECTION('',(0.,0.,1.));
#595=DIRECTION('',(0.,0.,1.));
#596=DIRECTION('',(1.,0.,0.));
#597=DIRECTION('',(0.,0.,1.));
#598=DIRECTION('',(-1.81430997492452E-14,1.,0.));
#599=DIRECTION('',(-1.,-1.81430997492452E-14,0.));
#600=DIRECTION('',(0.,0.,1.));
#601=DIRECTION('',(0.,0.,1.));
#602=DIRECTION('',(1.,0.,0.));
#603=DIRECTION('',(0.,0.,-1.));
#604=DIRECTION('',(-1.,0.,0.));
#605=DIRECTION('',(0.,0.,-1.));
#606=DIRECTION('',(0.,0.,-1.));
#607=DIRECTION('',(0.,0.,-1.));
#608=DIRECTION('',(-1.,0.,0.));
#609=DIRECTION('',(0.,0.,-1.));
#610=DIRECTION('',(0.,0.,-1.));
#611=DIRECTION('',(-1.,0.,0.));
#612=DIRECTION('',(0.,0.,-1.));
#613=DIRECTION('',(0.,0.,-1.));
#614=DIRECTION('',(-1.,0.,0.));
#615=CARTESIAN_POINT('',(0.,0.,0.));
#616=CARTESIAN_POINT('',(0.,0.,-0.096012));
#617=CARTESIAN_POINT('',(-4.10641572828885E-18,-0.04397579110972,-0.096012));
#618=CARTESIAN_POINT('',(0.000111337055886084,-0.040167418220941,-0.096012));
#619=CARTESIAN_POINT('',(-0.000111337055886093,-0.0477841639984989,-0.096012));
#620=CARTESIAN_POINT('',(0.00128562387544661,-1.59283578779896E-17,-0.096012));
#621=CARTESIAN_POINT('',(-0.0465189557051659,-5.8543725367982E-18,-0.096012));
#622=CARTESIAN_POINT('',(-0.0427089557051658,-5.15448689108549E-18,-0.096012));
#623=CARTESIAN_POINT('',(-0.0388989557051658,-4.92119167584792E-18,-0.096012));
#624=CARTESIAN_POINT('',(0.0012856238754466,-2.46059583792396E-18,-0.096012));
#625=CARTESIAN_POINT('',(0.,-0.086233,-0.096012));
#626=CARTESIAN_POINT('',(0.069596,-0.086233,-0.096012));
#627=CARTESIAN_POINT('',(-0.069596,-0.086233,-0.096012));
#628=CARTESIAN_POINT('',(0.069596,-0.069723,-0.096012));
#629=CARTESIAN_POINT('',(0.086106,-0.069723,-0.096012));
#630=CARTESIAN_POINT('',(0.086106,0.,-0.096012));
#631=CARTESIAN_POINT('',(0.086106,0.069723,-0.096012));
#632=CARTESIAN_POINT('',(0.069596,0.069723,-0.096012));
#633=CARTESIAN_POINT('',(0.069596,0.086233,-0.096012));
#634=CARTESIAN_POINT('',(-2.77555756156289E-17,0.086233,-0.096012));
#635=CARTESIAN_POINT('',(-0.069596,0.086233,-0.096012));
#636=CARTESIAN_POINT('',(-0.069596,0.069723,-0.096012));
#637=CARTESIAN_POINT('',(-0.086106,0.069723,-0.096012));
#638=CARTESIAN_POINT('',(-0.086106,0.,-0.096012));
#639=CARTESIAN_POINT('',(-0.086106,-0.069723,-0.096012));
#640=CARTESIAN_POINT('',(-0.069596,-0.069723,-0.096012));
#641=CARTESIAN_POINT('',(0.00702611019958905,0.0717763053898621,-0.096012));
#642=CARTESIAN_POINT('',(0.0094956106920057,0.0714301367835746,-0.096012));
#643=CARTESIAN_POINT('',(0.00702611019958905,0.0742699503898621,-0.096012));
#644=CARTESIAN_POINT('',(-0.000507324322914653,7.11154965704097E-5,-0.096012));
#645=CARTESIAN_POINT('',(0.00419054171465219,0.0335847914405,-0.096012));
#646=CARTESIAN_POINT('',(0.00172104122223556,0.0339309600467874,-0.096012));
#647=CARTESIAN_POINT('',(0.00172104122223558,0.0314373150467874,-0.096012));
#648=CARTESIAN_POINT('',(-5.7037034274231E-16,0.0314373150467874,-0.096012));
#649=CARTESIAN_POINT('',(-0.00172104122223551,0.0314373150467873,-0.096012));
#650=CARTESIAN_POINT('',(-0.00172104122223555,0.0339309600467873,-0.096012));
#651=CARTESIAN_POINT('',(-0.00419054171465219,0.0335847914404998,-0.096012));
#652=CARTESIAN_POINT('',(0.000507324322914636,7.11154965704072E-5,-0.096012));
#653=CARTESIAN_POINT('',(-0.0094956106920057,0.0714301367835746,-0.096012));
#654=CARTESIAN_POINT('',(-0.00702611019958905,0.0717763053898621,-0.096012));
#655=CARTESIAN_POINT('',(-0.00702611019958905,0.0742699503898621,-0.096012));
#656=CARTESIAN_POINT('',(0.,0.0742699503898621,-0.096012));
#657=CARTESIAN_POINT('',(0.,0.,-0.102362));
#658=CARTESIAN_POINT('',(0.00128562387544661,-1.59283578779896E-17,-0.102362));
#659=CARTESIAN_POINT('',(-0.0465189557051659,-5.8543725367982E-18,-0.102362));
#660=CARTESIAN_POINT('',(-0.000111337055886093,-0.0477841639984989,-0.102362));
#661=CARTESIAN_POINT('',(-4.10641572828885E-18,-0.04397579110972,-0.102362));
#662=CARTESIAN_POINT('',(0.000111337055886084,-0.040167418220941,-0.102362));
#663=CARTESIAN_POINT('',(0.0012856238754466,-2.46059583792396E-18,-0.102362));
#664=CARTESIAN_POINT('',(-0.0388989557051658,-4.92119167584792E-18,-0.102362));
#665=CARTESIAN_POINT('',(-0.0427089557051658,-5.15448689108549E-18,-0.102362));
#666=CARTESIAN_POINT('',(0.,-0.086233,-0.102362));
#667=CARTESIAN_POINT('',(0.069596,-0.086233,-0.102362));
#668=CARTESIAN_POINT('',(-0.069596,-0.086233,-0.102362));
#669=CARTESIAN_POINT('',(-0.069596,-0.069723,-0.102362));
#670=CARTESIAN_POINT('',(-0.086106,-0.069723,-0.102362));
#671=CARTESIAN_POINT('',(-0.086106,0.,-0.102362));
#672=CARTESIAN_POINT('',(-0.086106,0.069723,-0.102362));
#673=CARTESIAN_POINT('',(-0.069596,0.069723,-0.102362));
#674=CARTESIAN_POINT('',(-0.069596,0.086233,-0.102362));
#675=CARTESIAN_POINT('',(-2.77555756156289E-17,0.086233,-0.102362));
#676=CARTESIAN_POINT('',(0.069596,0.086233,-0.102362));
#677=CARTESIAN_POINT('',(0.069596,0.069723,-0.102362));
#678=CARTESIAN_POINT('',(0.086106,0.069723,-0.102362));
#679=CARTESIAN_POINT('',(0.086106,0.,-0.102362));
#680=CARTESIAN_POINT('',(0.086106,-0.069723,-0.102362));
#681=CARTESIAN_POINT('',(0.069596,-0.069723,-0.102362));
#682=CARTESIAN_POINT('',(-0.000507324322914653,7.11154965704097E-5,-0.102362));
#683=CARTESIAN_POINT('',(0.0094956106920057,0.0714301367835746,-0.102362));
#684=CARTESIAN_POINT('',(0.00419054171465219,0.0335847914405,-0.102362));
#685=CARTESIAN_POINT('',(0.00702611019958905,0.0717763053898621,-0.102362));
#686=CARTESIAN_POINT('',(0.00702611019958905,0.0742699503898621,-0.102362));
#687=CARTESIAN_POINT('',(0.,0.0742699503898621,-0.102362));
#688=CARTESIAN_POINT('',(-0.00702611019958905,0.0742699503898621,-0.102362));
#689=CARTESIAN_POINT('',(-0.00702611019958905,0.0717763053898621,-0.102362));
#690=CARTESIAN_POINT('',(-0.0094956106920057,0.0714301367835746,-0.102362));
#691=CARTESIAN_POINT('',(0.000507324322914636,7.11154965704072E-5,-0.102362));
#692=CARTESIAN_POINT('',(-0.00419054171465219,0.0335847914404998,-0.102362));
#693=CARTESIAN_POINT('',(-0.00172104122223555,0.0339309600467873,-0.102362));
#694=CARTESIAN_POINT('',(-0.00172104122223551,0.0314373150467873,-0.102362));
#695=CARTESIAN_POINT('',(-5.7037034274231E-16,0.0314373150467874,-0.102362));
#696=CARTESIAN_POINT('',(0.00172104122223558,0.0314373150467874,-0.102362));
#697=CARTESIAN_POINT('',(0.00172104122223556,0.0339309600467874,-0.102362));
#698=CARTESIAN_POINT('',(0.,-0.086233,-0.096012));
#699=CARTESIAN_POINT('',(0.069596,-0.086233,-0.096012));
#700=CARTESIAN_POINT('',(-0.069596,-0.086233,-0.096012));
#701=CARTESIAN_POINT('',(0.069596,-0.069723,-0.096012));
#702=CARTESIAN_POINT('',(0.086106,-0.069723,-0.096012));
#703=CARTESIAN_POINT('',(0.086106,0.,-0.096012));
#704=CARTESIAN_POINT('',(0.086106,0.069723,-0.096012));
#705=CARTESIAN_POINT('',(0.069596,0.069723,-0.096012));
#706=CARTESIAN_POINT('',(0.069596,0.086233,-0.096012));
#707=CARTESIAN_POINT('',(-2.77555756156289E-17,0.086233,-0.096012));
#708=CARTESIAN_POINT('',(-0.069596,0.086233,-0.096012));
#709=CARTESIAN_POINT('',(-0.069596,0.069723,-0.096012));
#710=CARTESIAN_POINT('',(-0.086106,0.069723,-0.096012));
#711=CARTESIAN_POINT('',(-0.086106,0.,-0.096012));
#712=CARTESIAN_POINT('',(-0.086106,-0.069723,-0.096012));
#713=CARTESIAN_POINT('',(-0.069596,-0.069723,-0.096012));
#714=CARTESIAN_POINT('',(0.00684307620332895,0.0525074641120373,-0.151384));
#715=CARTESIAN_POINT('',(0.0094956106920057,0.0714301367835746,-0.151384));
#716=CARTESIAN_POINT('',(0.00419054171465219,0.0335847914405,-0.151384));
#717=CARTESIAN_POINT('',(0.00702611019958905,0.0717763053898621,-0.151384));
#718=CARTESIAN_POINT('',(0.00702611019958905,0.0742699503898621,-0.151384));
#719=CARTESIAN_POINT('',(-1.7347234759768E-18,0.0742699503898621,-0.151384));
#720=CARTESIAN_POINT('',(-0.00702611019958905,0.0742699503898621,-0.151384));
#721=CARTESIAN_POINT('',(-0.00702611019958905,0.0717763053898621,-0.151384));
#722=CARTESIAN_POINT('',(-0.0094956106920057,0.0714301367835746,-0.151384));
#723=CARTESIAN_POINT('',(-0.00684307620332895,0.0525074641120372,-0.151384));
#724=CARTESIAN_POINT('',(-0.00419054171465219,0.0335847914404998,-0.151384));
#725=CARTESIAN_POINT('',(-0.00172104122223555,0.0339309600467873,-0.151384));
#726=CARTESIAN_POINT('',(-0.00172104122223551,0.0314373150467873,-0.151384));
#727=CARTESIAN_POINT('',(2.3635607360184E-17,0.0314373150467874,-0.151384));
#728=CARTESIAN_POINT('',(0.00172104122223558,0.0314373150467874,-0.151384));
#729=CARTESIAN_POINT('',(0.00172104122223556,0.0339309600467874,-0.151384));
#730=CARTESIAN_POINT('',(0.00128562387544661,-1.59283578779896E-17,-0.076962));
#731=CARTESIAN_POINT('',(-0.000111337055886093,-0.0477841639984989,-0.076962));
#732=CARTESIAN_POINT('',(-0.0465189557051659,-5.8543725367982E-18,-0.076962));
#733=CARTESIAN_POINT('',(-0.0427089557051658,-5.15448689108549E-18,-0.076962));
#734=CARTESIAN_POINT('',(-0.0388989557051658,-4.92119167584792E-18,-0.076962));
#735=CARTESIAN_POINT('',(0.0012856238754466,-2.46059583792396E-18,-0.076962));
#736=CARTESIAN_POINT('',(0.000111337055886084,-0.040167418220941,-0.076962));
#737=CARTESIAN_POINT('',(-4.10641572828885E-18,-0.04397579110972,-0.076962));
#738=MECHANICAL_DESIGN_GEOMETRIC_PRESENTATION_REPRESENTATION('',(#425),
#739);
#739=(
GEOMETRIC_REPRESENTATION_CONTEXT(3)
GLOBAL_UNCERTAINTY_ASSIGNED_CONTEXT((#740))
GLOBAL_UNIT_ASSIGNED_CONTEXT((#743,#742,#741))
REPRESENTATION_CONTEXT('Part 3','TOP_LEVEL_ASSEMBLY_PART')
);
#740=UNCERTAINTY_MEASURE_WITH_UNIT(LENGTH_MEASURE(1.E-8),#743,
'DISTANCE_ACCURACY_VALUE','Maximum Tolerance applied to model');
#741=(
NAMED_UNIT(*)
SI_UNIT($,.STERADIAN.)
SOLID_ANGLE_UNIT()
);
#742=(
NAMED_UNIT(*)
PLANE_ANGLE_UNIT()
SI_UNIT($,.RADIAN.)
);
#743=(
LENGTH_UNIT()
NAMED_UNIT(*)
SI_UNIT($,.METRE.)
);
#744=PRODUCT_DEFINITION_SHAPE('','',#745);
#745=PRODUCT_DEFINITION('','',#747,#746);
#746=PRODUCT_DEFINITION_CONTEXT('',#753,'design');
#747=PRODUCT_DEFINITION_FORMATION_WITH_SPECIFIED_SOURCE('','',#749,
 .NOT_KNOWN.);
#748=PRODUCT_RELATED_PRODUCT_CATEGORY('','',(#749));
#749=PRODUCT('Part 3','Part 3','Part 3',(#751));
#750=PRODUCT_CATEGORY('','');
#751=PRODUCT_CONTEXT('',#753,'mechanical');
#752=APPLICATION_PROTOCOL_DEFINITION('international standard',
'ap242_managed_model_based_3d_engineering',2020,#753);
#753=APPLICATION_CONTEXT('managed model based 3d engineering');
ENDSEC;
END-ISO-10303-21;
