ISO-10303-21;
HEADER;
/* Generated by software containing ST-Developer
 * from STEP Tools, Inc. (www.steptools.com) 
 */
/* OPTION: using custom renumber hook */

FILE_DESCRIPTION(
/* description */ ('STEP AP242 Edition 2',
'CAx-IF Rec.Pracs.---Representation and Presentation of Product Manufa
cturing Information (PMI)---4.0---2014-10-13',
'CAx-IF Rec.Pracs.---3D Tessellated Geometry---0.4---2014-09-14','2;1',
'CAx-IF Rec.Pracs.---User Defined Attributes---1.5---2016-08-15'),
/* implementation_level */ '2;1');

FILE_NAME(
/* name */ 'Center Shaft + Final Discs - Part 3',
/* time_stamp */ '2026-08-20T04:34:10Z',
/* author */ (''),
/* organization */ (''),
/* preprocessor_version */ 'ST-DEVELOPER v20',
/* originating_system */ 'ONSHAPE BY PTC INC, 1.219',
/* authorisation */ '  ');

FILE_SCHEMA (('AP242_MANAGED_MODEL_BASED_3D_ENGINEERING_MIM_LF { 1 0 10303 442 3 1 4 }'));
ENDSEC;

DATA;
#10=SHAPE_REPRESENTATION_RELATIONSHIP('','',#881,#11);
#11=ADVANCED_BREP_SHAPE_REPRESENTATION('',(#879),#1519);
#12=LINE('',#1291,#60);
#13=LINE('',#1295,#61);
#14=LINE('',#1299,#62);
#15=LINE('',#1303,#63);
#16=LINE('',#1320,#64);
#17=LINE('',#1324,#65);
#18=LINE('',#1328,#66);
#19=LINE('',#1332,#67);
#20=LINE('',#1344,#68);
#21=LINE('',#1349,#69);
#22=LINE('',#1353,#70);
#23=LINE('',#1357,#71);
#24=LINE('',#1366,#72);
#25=LINE('',#1371,#73);
#26=LINE('',#1375,#74);
#27=LINE('',#1379,#75);
#28=LINE('',#1383,#76);
#29=LINE('',#1384,#77);
#30=LINE('',#1386,#78);
#31=LINE('',#1388,#79);
#32=LINE('',#1390,#80);
#33=LINE('',#1392,#81);
#34=LINE('',#1394,#82);
#35=LINE('',#1395,#83);
#36=LINE('',#1397,#84);
#37=LINE('',#1399,#85);
#38=LINE('',#1401,#86);
#39=LINE('',#1403,#87);
#40=LINE('',#1405,#88);
#41=LINE('',#1407,#89);
#42=LINE('',#1432,#90);
#43=LINE('',#1437,#91);
#44=LINE('',#1447,#92);
#45=LINE('',#1451,#93);
#46=LINE('',#1456,#94);
#47=LINE('',#1460,#95);
#48=LINE('',#1462,#96);
#49=LINE('',#1464,#97);
#50=LINE('',#1466,#98);
#51=LINE('',#1472,#99);
#52=LINE('',#1478,#100);
#53=LINE('',#1482,#101);
#54=LINE('',#1486,#102);
#55=LINE('',#1488,#103);
#56=LINE('',#1490,#104);
#57=LINE('',#1492,#105);
#58=LINE('',#1510,#106);
#59=LINE('',#1512,#107);
#60=VECTOR('',#1018,1.);
#61=VECTOR('',#1021,1.);
#62=VECTOR('',#1024,1.);
#63=VECTOR('',#1027,1.);
#64=VECTOR('',#1044,1.);
#65=VECTOR('',#1047,1.);
#66=VECTOR('',#1050,1.);
#67=VECTOR('',#1053,1.);
#68=VECTOR('',#1066,1.);
#69=VECTOR('',#1069,1.);
#70=VECTOR('',#1072,1.);
#71=VECTOR('',#1075,1.);
#72=VECTOR('',#1084,1.);
#73=VECTOR('',#1087,1.);
#74=VECTOR('',#1090,1.);
#75=VECTOR('',#1093,1.);
#76=VECTOR('',#1098,1.);
#77=VECTOR('',#1099,1.);
#78=VECTOR('',#1102,1.);
#79=VECTOR('',#1105,1.);
#80=VECTOR('',#1108,1.);
#81=VECTOR('',#1111,1.);
#82=VECTOR('',#1114,1.);
#83=VECTOR('',#1115,1.);
#84=VECTOR('',#1118,1.);
#85=VECTOR('',#1121,1.);
#86=VECTOR('',#1124,1.);
#87=VECTOR('',#1127,1.);
#88=VECTOR('',#1130,1.);
#89=VECTOR('',#1133,1.);
#90=VECTOR('',#1168,1.);
#91=VECTOR('',#1171,1.);
#92=VECTOR('',#1182,1.);
#93=VECTOR('',#1185,1.);
#94=VECTOR('',#1190,1.);
#95=VECTOR('',#1193,1.);
#96=VECTOR('',#1196,1.);
#97=VECTOR('',#1197,1.);
#98=VECTOR('',#1198,1.);
#99=VECTOR('',#1205,1.);
#100=VECTOR('',#1212,1.);
#101=VECTOR('',#1217,1.);
#102=VECTOR('',#1222,1.);
#103=VECTOR('',#1223,1.);
#104=VECTOR('',#1224,1.);
#105=VECTOR('',#1227,1.);
#106=VECTOR('',#1258,1.);
#107=VECTOR('',#1261,1.);
#108=PLANE('',#889);
#109=PLANE('',#898);
#110=PLANE('',#908);
#111=PLANE('',#924);
#112=PLANE('',#926);
#113=PLANE('',#928);
#114=PLANE('',#929);
#115=PLANE('',#931);
#116=PLANE('',#933);
#117=PLANE('',#935);
#118=PLANE('',#939);
#119=PLANE('',#944);
#120=PLANE('',#950);
#121=PLANE('',#955);
#122=PLANE('',#963);
#123=PLANE('',#973);
#124=PLANE('',#980);
#125=PLANE('',#983);
#126=PLANE('',#990);
#127=ORIENTED_EDGE('',*,*,#351,.F.);
#128=ORIENTED_EDGE('',*,*,#352,.F.);
#129=ORIENTED_EDGE('',*,*,#353,.F.);
#130=ORIENTED_EDGE('',*,*,#354,.F.);
#131=ORIENTED_EDGE('',*,*,#355,.F.);
#132=ORIENTED_EDGE('',*,*,#356,.F.);
#133=ORIENTED_EDGE('',*,*,#357,.F.);
#134=ORIENTED_EDGE('',*,*,#358,.T.);
#135=ORIENTED_EDGE('',*,*,#359,.F.);
#136=ORIENTED_EDGE('',*,*,#360,.T.);
#137=ORIENTED_EDGE('',*,*,#361,.F.);
#138=ORIENTED_EDGE('',*,*,#362,.F.);
#139=ORIENTED_EDGE('',*,*,#363,.F.);
#140=ORIENTED_EDGE('',*,*,#364,.F.);
#141=ORIENTED_EDGE('',*,*,#365,.F.);
#142=ORIENTED_EDGE('',*,*,#366,.T.);
#143=ORIENTED_EDGE('',*,*,#367,.F.);
#144=ORIENTED_EDGE('',*,*,#368,.F.);
#145=ORIENTED_EDGE('',*,*,#369,.F.);
#146=ORIENTED_EDGE('',*,*,#370,.F.);
#147=ORIENTED_EDGE('',*,*,#371,.T.);
#148=ORIENTED_EDGE('',*,*,#372,.F.);
#149=ORIENTED_EDGE('',*,*,#373,.T.);
#150=ORIENTED_EDGE('',*,*,#374,.T.);
#151=ORIENTED_EDGE('',*,*,#375,.T.);
#152=ORIENTED_EDGE('',*,*,#376,.T.);
#153=ORIENTED_EDGE('',*,*,#377,.T.);
#154=ORIENTED_EDGE('',*,*,#378,.T.);
#155=ORIENTED_EDGE('',*,*,#379,.F.);
#156=ORIENTED_EDGE('',*,*,#380,.T.);
#157=ORIENTED_EDGE('',*,*,#381,.T.);
#158=ORIENTED_EDGE('',*,*,#382,.T.);
#159=ORIENTED_EDGE('',*,*,#383,.T.);
#160=ORIENTED_EDGE('',*,*,#384,.T.);
#161=ORIENTED_EDGE('',*,*,#385,.F.);
#162=ORIENTED_EDGE('',*,*,#386,.F.);
#163=ORIENTED_EDGE('',*,*,#387,.F.);
#164=ORIENTED_EDGE('',*,*,#388,.F.);
#165=ORIENTED_EDGE('',*,*,#389,.F.);
#166=ORIENTED_EDGE('',*,*,#390,.F.);
#167=ORIENTED_EDGE('',*,*,#391,.F.);
#168=ORIENTED_EDGE('',*,*,#392,.T.);
#169=ORIENTED_EDGE('',*,*,#393,.T.);
#170=ORIENTED_EDGE('',*,*,#353,.T.);
#171=ORIENTED_EDGE('',*,*,#351,.T.);
#172=ORIENTED_EDGE('',*,*,#394,.T.);
#173=ORIENTED_EDGE('',*,*,#395,.F.);
#174=ORIENTED_EDGE('',*,*,#396,.T.);
#175=ORIENTED_EDGE('',*,*,#397,.T.);
#176=ORIENTED_EDGE('',*,*,#398,.T.);
#177=ORIENTED_EDGE('',*,*,#399,.T.);
#178=ORIENTED_EDGE('',*,*,#400,.T.);
#179=ORIENTED_EDGE('',*,*,#401,.F.);
#180=ORIENTED_EDGE('',*,*,#402,.T.);
#181=ORIENTED_EDGE('',*,*,#384,.F.);
#182=ORIENTED_EDGE('',*,*,#403,.F.);
#183=ORIENTED_EDGE('',*,*,#372,.T.);
#184=ORIENTED_EDGE('',*,*,#404,.F.);
#185=ORIENTED_EDGE('',*,*,#391,.T.);
#186=ORIENTED_EDGE('',*,*,#405,.F.);
#187=ORIENTED_EDGE('',*,*,#373,.F.);
#188=ORIENTED_EDGE('',*,*,#403,.T.);
#189=ORIENTED_EDGE('',*,*,#390,.T.);
#190=ORIENTED_EDGE('',*,*,#406,.F.);
#191=ORIENTED_EDGE('',*,*,#374,.F.);
#192=ORIENTED_EDGE('',*,*,#405,.T.);
#193=ORIENTED_EDGE('',*,*,#389,.T.);
#194=ORIENTED_EDGE('',*,*,#407,.F.);
#195=ORIENTED_EDGE('',*,*,#375,.F.);
#196=ORIENTED_EDGE('',*,*,#406,.T.);
#197=ORIENTED_EDGE('',*,*,#388,.T.);
#198=ORIENTED_EDGE('',*,*,#408,.T.);
#199=ORIENTED_EDGE('',*,*,#376,.F.);
#200=ORIENTED_EDGE('',*,*,#407,.T.);
#201=ORIENTED_EDGE('',*,*,#409,.F.);
#202=ORIENTED_EDGE('',*,*,#395,.T.);
#203=ORIENTED_EDGE('',*,*,#410,.T.);
#204=ORIENTED_EDGE('',*,*,#358,.F.);
#205=ORIENTED_EDGE('',*,*,#357,.T.);
#206=ORIENTED_EDGE('',*,*,#411,.F.);
#207=ORIENTED_EDGE('',*,*,#396,.F.);
#208=ORIENTED_EDGE('',*,*,#409,.T.);
#209=ORIENTED_EDGE('',*,*,#364,.T.);
#210=ORIENTED_EDGE('',*,*,#412,.F.);
#211=ORIENTED_EDGE('',*,*,#397,.F.);
#212=ORIENTED_EDGE('',*,*,#411,.T.);
#213=ORIENTED_EDGE('',*,*,#363,.T.);
#214=ORIENTED_EDGE('',*,*,#413,.F.);
#215=ORIENTED_EDGE('',*,*,#398,.F.);
#216=ORIENTED_EDGE('',*,*,#412,.T.);
#217=ORIENTED_EDGE('',*,*,#362,.T.);
#218=ORIENTED_EDGE('',*,*,#414,.F.);
#219=ORIENTED_EDGE('',*,*,#399,.F.);
#220=ORIENTED_EDGE('',*,*,#413,.T.);
#221=ORIENTED_EDGE('',*,*,#361,.T.);
#222=ORIENTED_EDGE('',*,*,#415,.F.);
#223=ORIENTED_EDGE('',*,*,#400,.F.);
#224=ORIENTED_EDGE('',*,*,#414,.T.);
#225=ORIENTED_EDGE('',*,*,#416,.F.);
#226=ORIENTED_EDGE('',*,*,#401,.T.);
#227=ORIENTED_EDGE('',*,*,#415,.T.);
#228=ORIENTED_EDGE('',*,*,#360,.F.);
#229=ORIENTED_EDGE('',*,*,#359,.T.);
#230=ORIENTED_EDGE('',*,*,#410,.F.);
#231=ORIENTED_EDGE('',*,*,#402,.F.);
#232=ORIENTED_EDGE('',*,*,#416,.T.);
#233=ORIENTED_EDGE('',*,*,#365,.T.);
#234=ORIENTED_EDGE('',*,*,#417,.F.);
#235=ORIENTED_EDGE('',*,*,#417,.T.);
#236=ORIENTED_EDGE('',*,*,#418,.T.);
#237=ORIENTED_EDGE('',*,*,#379,.T.);
#238=ORIENTED_EDGE('',*,*,#418,.F.);
#239=ORIENTED_EDGE('',*,*,#366,.F.);
#240=ORIENTED_EDGE('',*,*,#419,.T.);
#241=ORIENTED_EDGE('',*,*,#420,.F.);
#242=ORIENTED_EDGE('',*,*,#421,.F.);
#243=ORIENTED_EDGE('',*,*,#422,.F.);
#244=ORIENTED_EDGE('',*,*,#419,.F.);
#245=ORIENTED_EDGE('',*,*,#422,.T.);
#246=ORIENTED_EDGE('',*,*,#394,.F.);
#247=ORIENTED_EDGE('',*,*,#421,.T.);
#248=ORIENTED_EDGE('',*,*,#393,.F.);
#249=ORIENTED_EDGE('',*,*,#423,.T.);
#250=ORIENTED_EDGE('',*,*,#352,.T.);
#251=ORIENTED_EDGE('',*,*,#424,.T.);
#252=ORIENTED_EDGE('',*,*,#425,.T.);
#253=ORIENTED_EDGE('',*,*,#426,.T.);
#254=ORIENTED_EDGE('',*,*,#427,.F.);
#255=ORIENTED_EDGE('',*,*,#423,.F.);
#256=ORIENTED_EDGE('',*,*,#356,.T.);
#257=ORIENTED_EDGE('',*,*,#428,.T.);
#258=ORIENTED_EDGE('',*,*,#354,.T.);
#259=ORIENTED_EDGE('',*,*,#429,.T.);
#260=ORIENTED_EDGE('',*,*,#430,.T.);
#261=ORIENTED_EDGE('',*,*,#431,.F.);
#262=ORIENTED_EDGE('',*,*,#432,.T.);
#263=ORIENTED_EDGE('',*,*,#428,.F.);
#264=ORIENTED_EDGE('',*,*,#355,.T.);
#265=ORIENTED_EDGE('',*,*,#433,.F.);
#266=ORIENTED_EDGE('',*,*,#434,.F.);
#267=ORIENTED_EDGE('',*,*,#435,.T.);
#268=ORIENTED_EDGE('',*,*,#436,.F.);
#269=ORIENTED_EDGE('',*,*,#437,.F.);
#270=ORIENTED_EDGE('',*,*,#438,.F.);
#271=ORIENTED_EDGE('',*,*,#439,.T.);
#272=ORIENTED_EDGE('',*,*,#434,.T.);
#273=ORIENTED_EDGE('',*,*,#440,.T.);
#274=ORIENTED_EDGE('',*,*,#438,.T.);
#275=ORIENTED_EDGE('',*,*,#441,.F.);
#276=ORIENTED_EDGE('',*,*,#442,.F.);
#277=ORIENTED_EDGE('',*,*,#443,.T.);
#278=ORIENTED_EDGE('',*,*,#442,.T.);
#279=ORIENTED_EDGE('',*,*,#444,.F.);
#280=ORIENTED_EDGE('',*,*,#445,.F.);
#281=ORIENTED_EDGE('',*,*,#445,.T.);
#282=ORIENTED_EDGE('',*,*,#446,.F.);
#283=ORIENTED_EDGE('',*,*,#447,.F.);
#284=ORIENTED_EDGE('',*,*,#448,.T.);
#285=ORIENTED_EDGE('',*,*,#447,.T.);
#286=ORIENTED_EDGE('',*,*,#449,.T.);
#287=ORIENTED_EDGE('',*,*,#450,.F.);
#288=ORIENTED_EDGE('',*,*,#451,.F.);
#289=ORIENTED_EDGE('',*,*,#452,.T.);
#290=ORIENTED_EDGE('',*,*,#453,.T.);
#291=ORIENTED_EDGE('',*,*,#450,.T.);
#292=ORIENTED_EDGE('',*,*,#454,.F.);
#293=ORIENTED_EDGE('',*,*,#426,.F.);
#294=ORIENTED_EDGE('',*,*,#455,.F.);
#295=ORIENTED_EDGE('',*,*,#452,.F.);
#296=ORIENTED_EDGE('',*,*,#456,.T.);
#297=ORIENTED_EDGE('',*,*,#457,.F.);
#298=ORIENTED_EDGE('',*,*,#431,.T.);
#299=ORIENTED_EDGE('',*,*,#458,.F.);
#300=ORIENTED_EDGE('',*,*,#427,.T.);
#301=ORIENTED_EDGE('',*,*,#456,.F.);
#302=ORIENTED_EDGE('',*,*,#454,.T.);
#303=ORIENTED_EDGE('',*,*,#449,.F.);
#304=ORIENTED_EDGE('',*,*,#446,.T.);
#305=ORIENTED_EDGE('',*,*,#444,.T.);
#306=ORIENTED_EDGE('',*,*,#441,.T.);
#307=ORIENTED_EDGE('',*,*,#437,.T.);
#308=ORIENTED_EDGE('',*,*,#433,.T.);
#309=ORIENTED_EDGE('',*,*,#429,.F.);
#310=ORIENTED_EDGE('',*,*,#459,.T.);
#311=ORIENTED_EDGE('',*,*,#435,.F.);
#312=ORIENTED_EDGE('',*,*,#439,.F.);
#313=ORIENTED_EDGE('',*,*,#440,.F.);
#314=ORIENTED_EDGE('',*,*,#443,.F.);
#315=ORIENTED_EDGE('',*,*,#448,.F.);
#316=ORIENTED_EDGE('',*,*,#451,.T.);
#317=ORIENTED_EDGE('',*,*,#453,.F.);
#318=ORIENTED_EDGE('',*,*,#455,.T.);
#319=ORIENTED_EDGE('',*,*,#425,.F.);
#320=ORIENTED_EDGE('',*,*,#460,.T.);
#321=ORIENTED_EDGE('',*,*,#430,.F.);
#322=ORIENTED_EDGE('',*,*,#460,.F.);
#323=ORIENTED_EDGE('',*,*,#424,.F.);
#324=ORIENTED_EDGE('',*,*,#458,.T.);
#325=ORIENTED_EDGE('',*,*,#432,.F.);
#326=ORIENTED_EDGE('',*,*,#457,.T.);
#327=ORIENTED_EDGE('',*,*,#436,.T.);
#328=ORIENTED_EDGE('',*,*,#459,.F.);
#329=ORIENTED_EDGE('',*,*,#420,.T.);
#330=ORIENTED_EDGE('',*,*,#392,.F.);
#331=ORIENTED_EDGE('',*,*,#377,.F.);
#332=ORIENTED_EDGE('',*,*,#408,.F.);
#333=ORIENTED_EDGE('',*,*,#387,.T.);
#334=ORIENTED_EDGE('',*,*,#461,.T.);
#335=ORIENTED_EDGE('',*,*,#378,.F.);
#336=ORIENTED_EDGE('',*,*,#461,.F.);
#337=ORIENTED_EDGE('',*,*,#386,.T.);
#338=ORIENTED_EDGE('',*,*,#462,.T.);
#339=ORIENTED_EDGE('',*,*,#371,.F.);
#340=ORIENTED_EDGE('',*,*,#462,.F.);
#341=ORIENTED_EDGE('',*,*,#385,.T.);
#342=ORIENTED_EDGE('',*,*,#404,.T.);
#343=ORIENTED_EDGE('',*,*,#370,.T.);
#344=ORIENTED_EDGE('',*,*,#383,.F.);
#345=ORIENTED_EDGE('',*,*,#369,.T.);
#346=ORIENTED_EDGE('',*,*,#382,.F.);
#347=ORIENTED_EDGE('',*,*,#368,.T.);
#348=ORIENTED_EDGE('',*,*,#381,.F.);
#349=ORIENTED_EDGE('',*,*,#367,.T.);
#350=ORIENTED_EDGE('',*,*,#380,.F.);
#351=EDGE_CURVE('',#463,#463,#547,.T.);
#352=EDGE_CURVE('',#464,#464,#548,.F.);
#353=EDGE_CURVE('',#465,#465,#549,.T.);
#354=EDGE_CURVE('',#466,#466,#550,.F.);
#355=EDGE_CURVE('',#467,#467,#551,.T.);
#356=EDGE_CURVE('',#468,#468,#552,.T.);
#357=EDGE_CURVE('',#469,#470,#553,.T.);
#358=EDGE_CURVE('',#469,#471,#12,.T.);
#359=EDGE_CURVE('',#472,#471,#554,.T.);
#360=EDGE_CURVE('',#472,#473,#13,.T.);
#361=EDGE_CURVE('',#474,#473,#555,.T.);
#362=EDGE_CURVE('',#475,#474,#14,.T.);
#363=EDGE_CURVE('',#476,#475,#556,.T.);
#364=EDGE_CURVE('',#470,#476,#15,.T.);
#365=EDGE_CURVE('',#477,#477,#557,.T.);
#366=EDGE_CURVE('',#478,#478,#558,.T.);
#367=EDGE_CURVE('',#479,#479,#559,.T.);
#368=EDGE_CURVE('',#480,#480,#560,.T.);
#369=EDGE_CURVE('',#481,#481,#561,.T.);
#370=EDGE_CURVE('',#482,#482,#562,.T.);
#371=EDGE_CURVE('',#483,#484,#563,.T.);
#372=EDGE_CURVE('',#485,#484,#16,.T.);
#373=EDGE_CURVE('',#485,#486,#564,.T.);
#374=EDGE_CURVE('',#486,#487,#17,.T.);
#375=EDGE_CURVE('',#487,#488,#565,.T.);
#376=EDGE_CURVE('',#488,#489,#18,.T.);
#377=EDGE_CURVE('',#489,#490,#566,.T.);
#378=EDGE_CURVE('',#490,#483,#19,.T.);
#379=EDGE_CURVE('',#491,#491,#567,.T.);
#380=EDGE_CURVE('',#492,#492,#568,.T.);
#381=EDGE_CURVE('',#493,#493,#569,.T.);
#382=EDGE_CURVE('',#494,#494,#570,.T.);
#383=EDGE_CURVE('',#495,#495,#571,.T.);
#384=EDGE_CURVE('',#496,#497,#20,.T.);
#385=EDGE_CURVE('',#498,#497,#572,.T.);
#386=EDGE_CURVE('',#499,#498,#21,.T.);
#387=EDGE_CURVE('',#500,#499,#573,.T.);
#388=EDGE_CURVE('',#501,#500,#22,.T.);
#389=EDGE_CURVE('',#502,#501,#574,.T.);
#390=EDGE_CURVE('',#503,#502,#23,.T.);
#391=EDGE_CURVE('',#496,#503,#575,.T.);
#392=EDGE_CURVE('',#504,#504,#576,.T.);
#393=EDGE_CURVE('',#505,#505,#577,.T.);
#394=EDGE_CURVE('',#506,#506,#578,.T.);
#395=EDGE_CURVE('',#507,#508,#24,.T.);
#396=EDGE_CURVE('',#507,#509,#579,.T.);
#397=EDGE_CURVE('',#509,#510,#25,.T.);
#398=EDGE_CURVE('',#510,#511,#580,.T.);
#399=EDGE_CURVE('',#511,#512,#26,.T.);
#400=EDGE_CURVE('',#512,#513,#581,.T.);
#401=EDGE_CURVE('',#514,#513,#27,.T.);
#402=EDGE_CURVE('',#514,#508,#582,.T.);
#403=EDGE_CURVE('',#485,#496,#28,.T.);
#404=EDGE_CURVE('',#497,#484,#29,.T.);
#405=EDGE_CURVE('',#486,#503,#30,.T.);
#406=EDGE_CURVE('',#487,#502,#31,.T.);
#407=EDGE_CURVE('',#488,#501,#32,.T.);
#408=EDGE_CURVE('',#500,#489,#33,.T.);
#409=EDGE_CURVE('',#507,#469,#34,.T.);
#410=EDGE_CURVE('',#508,#471,#35,.T.);
#411=EDGE_CURVE('',#509,#470,#36,.T.);
#412=EDGE_CURVE('',#510,#476,#37,.T.);
#413=EDGE_CURVE('',#511,#475,#38,.T.);
#414=EDGE_CURVE('',#512,#474,#39,.T.);
#415=EDGE_CURVE('',#513,#473,#40,.T.);
#416=EDGE_CURVE('',#514,#472,#41,.T.);
#417=EDGE_CURVE('',#515,#515,#583,.T.);
#418=EDGE_CURVE('',#516,#516,#584,.T.);
#419=EDGE_CURVE('',#517,#517,#585,.T.);
#420=EDGE_CURVE('',#518,#518,#586,.T.);
#421=EDGE_CURVE('',#519,#519,#587,.T.);
#422=EDGE_CURVE('',#520,#520,#588,.T.);
#423=EDGE_CURVE('',#521,#521,#589,.T.);
#424=EDGE_CURVE('',#522,#523,#42,.F.);
#425=EDGE_CURVE('',#523,#524,#590,.T.);
#426=EDGE_CURVE('',#524,#525,#43,.T.);
#427=EDGE_CURVE('',#522,#525,#591,.T.);
#428=EDGE_CURVE('',#526,#526,#592,.T.);
#429=EDGE_CURVE('',#527,#528,#593,.T.);
#430=EDGE_CURVE('',#528,#529,#44,.T.);
#431=EDGE_CURVE('',#530,#529,#594,.T.);
#432=EDGE_CURVE('',#530,#527,#45,.F.);
#433=EDGE_CURVE('',#531,#532,#595,.T.);
#434=EDGE_CURVE('',#533,#531,#46,.T.);
#435=EDGE_CURVE('',#533,#534,#596,.T.);
#436=EDGE_CURVE('',#532,#534,#47,.T.);
#437=EDGE_CURVE('',#535,#531,#48,.T.);
#438=EDGE_CURVE('',#536,#535,#49,.T.);
#439=EDGE_CURVE('',#536,#533,#50,.T.);
#440=EDGE_CURVE('',#537,#536,#597,.T.);
#441=EDGE_CURVE('',#538,#535,#598,.T.);
#442=EDGE_CURVE('',#537,#538,#51,.T.);
#443=EDGE_CURVE('',#539,#537,#599,.F.);
#444=EDGE_CURVE('',#540,#538,#600,.F.);
#445=EDGE_CURVE('',#539,#540,#52,.T.);
#446=EDGE_CURVE('',#541,#540,#601,.T.);
#447=EDGE_CURVE('',#542,#541,#53,.T.);
#448=EDGE_CURVE('',#542,#539,#602,.T.);
#449=EDGE_CURVE('',#541,#543,#54,.T.);
#450=EDGE_CURVE('',#544,#543,#55,.T.);
#451=EDGE_CURVE('',#542,#544,#56,.T.);
#452=EDGE_CURVE('',#545,#546,#57,.T.);
#453=EDGE_CURVE('',#546,#544,#603,.T.);
#454=EDGE_CURVE('',#545,#543,#604,.T.);
#455=EDGE_CURVE('',#546,#524,#605,.F.);
#456=EDGE_CURVE('',#545,#525,#606,.F.);
#457=EDGE_CURVE('',#530,#532,#607,.F.);
#458=EDGE_CURVE('',#522,#529,#608,.F.);
#459=EDGE_CURVE('',#527,#534,#609,.F.);
#460=EDGE_CURVE('',#523,#528,#610,.F.);
#461=EDGE_CURVE('',#499,#490,#58,.T.);
#462=EDGE_CURVE('',#498,#483,#59,.T.);
#463=VERTEX_POINT('',#1275);
#464=VERTEX_POINT('',#1277);
#465=VERTEX_POINT('',#1280);
#466=VERTEX_POINT('',#1282);
#467=VERTEX_POINT('',#1285);
#468=VERTEX_POINT('',#1287);
#469=VERTEX_POINT('',#1289);
#470=VERTEX_POINT('',#1290);
#471=VERTEX_POINT('',#1292);
#472=VERTEX_POINT('',#1294);
#473=VERTEX_POINT('',#1296);
#474=VERTEX_POINT('',#1298);
#475=VERTEX_POINT('',#1300);
#476=VERTEX_POINT('',#1302);
#477=VERTEX_POINT('',#1305);
#478=VERTEX_POINT('',#1307);
#479=VERTEX_POINT('',#1310);
#480=VERTEX_POINT('',#1312);
#481=VERTEX_POINT('',#1314);
#482=VERTEX_POINT('',#1316);
#483=VERTEX_POINT('',#1318);
#484=VERTEX_POINT('',#1319);
#485=VERTEX_POINT('',#1321);
#486=VERTEX_POINT('',#1323);
#487=VERTEX_POINT('',#1325);
#488=VERTEX_POINT('',#1327);
#489=VERTEX_POINT('',#1329);
#490=VERTEX_POINT('',#1331);
#491=VERTEX_POINT('',#1334);
#492=VERTEX_POINT('',#1337);
#493=VERTEX_POINT('',#1339);
#494=VERTEX_POINT('',#1341);
#495=VERTEX_POINT('',#1343);
#496=VERTEX_POINT('',#1345);
#497=VERTEX_POINT('',#1346);
#498=VERTEX_POINT('',#1348);
#499=VERTEX_POINT('',#1350);
#500=VERTEX_POINT('',#1352);
#501=VERTEX_POINT('',#1354);
#502=VERTEX_POINT('',#1356);
#503=VERTEX_POINT('',#1358);
#504=VERTEX_POINT('',#1361);
#505=VERTEX_POINT('',#1363);
#506=VERTEX_POINT('',#1365);
#507=VERTEX_POINT('',#1367);
#508=VERTEX_POINT('',#1368);
#509=VERTEX_POINT('',#1370);
#510=VERTEX_POINT('',#1372);
#511=VERTEX_POINT('',#1374);
#512=VERTEX_POINT('',#1376);
#513=VERTEX_POINT('',#1378);
#514=VERTEX_POINT('',#1380);
#515=VERTEX_POINT('',#1411);
#516=VERTEX_POINT('',#1414);
#517=VERTEX_POINT('',#1418);
#518=VERTEX_POINT('',#1421);
#519=VERTEX_POINT('',#1423);
#520=VERTEX_POINT('',#1425);
#521=VERTEX_POINT('',#1430);
#522=VERTEX_POINT('',#1433);
#523=VERTEX_POINT('',#1434);
#524=VERTEX_POINT('',#1436);
#525=VERTEX_POINT('',#1438);
#526=VERTEX_POINT('',#1442);
#527=VERTEX_POINT('',#1445);
#528=VERTEX_POINT('',#1446);
#529=VERTEX_POINT('',#1448);
#530=VERTEX_POINT('',#1450);
#531=VERTEX_POINT('',#1454);
#532=VERTEX_POINT('',#1455);
#533=VERTEX_POINT('',#1457);
#534=VERTEX_POINT('',#1459);
#535=VERTEX_POINT('',#1463);
#536=VERTEX_POINT('',#1465);
#537=VERTEX_POINT('',#1469);
#538=VERTEX_POINT('',#1471);
#539=VERTEX_POINT('',#1475);
#540=VERTEX_POINT('',#1477);
#541=VERTEX_POINT('',#1481);
#542=VERTEX_POINT('',#1483);
#543=VERTEX_POINT('',#1487);
#544=VERTEX_POINT('',#1489);
#545=VERTEX_POINT('',#1493);
#546=VERTEX_POINT('',#1494);
#547=CIRCLE('',#884,0.0016176715622818);
#548=CIRCLE('',#885,0.0016176715622818);
#549=CIRCLE('',#887,0.00168487109870454);
#550=CIRCLE('',#888,0.00168487109870454);
#551=CIRCLE('',#890,0.00299853677173334);
#552=CIRCLE('',#891,0.00300903213865133);
#553=CIRCLE('',#892,0.002493645);
#554=CIRCLE('',#893,0.002493645);
#555=CIRCLE('',#894,0.002493645);
#556=CIRCLE('',#895,0.002493645);
#557=CIRCLE('',#896,0.0753965967132978);
#558=CIRCLE('',#897,0.0312582801906606);
#559=CIRCLE('',#899,0.0017038066);
#560=CIRCLE('',#900,0.0017038066);
#561=CIRCLE('',#901,0.0017038066);
#562=CIRCLE('',#902,0.0017038066);
#563=CIRCLE('',#903,0.01143);
#564=CIRCLE('',#904,0.01143);
#565=CIRCLE('',#905,0.01143);
#566=CIRCLE('',#906,0.01143);
#567=CIRCLE('',#907,0.0825874047833929);
#568=CIRCLE('',#909,0.0017038066);
#569=CIRCLE('',#910,0.0017038066);
#570=CIRCLE('',#911,0.0017038066);
#571=CIRCLE('',#912,0.0017038066);
#572=CIRCLE('',#913,0.01143);
#573=CIRCLE('',#914,0.01143);
#574=CIRCLE('',#915,0.01143);
#575=CIRCLE('',#916,0.01143);
#576=CIRCLE('',#917,0.00862189766486563);
#577=CIRCLE('',#918,0.0016848709);
#578=CIRCLE('',#919,0.00168487109870454);
#579=CIRCLE('',#920,0.002493645);
#580=CIRCLE('',#921,0.002493645);
#581=CIRCLE('',#922,0.002493645);
#582=CIRCLE('',#923,0.002493645);
#583=CIRCLE('',#938,0.0753965967132978);
#584=CIRCLE('',#940,0.0825874047833929);
#585=CIRCLE('',#943,0.0312582801906606);
#586=CIRCLE('',#945,0.00862189766486563);
#587=CIRCLE('',#946,0.0016848709);
#588=CIRCLE('',#947,0.00168487109870454);
#589=CIRCLE('',#951,0.00300903213865133);
#590=CIRCLE('',#953,0.00300903213865133);
#591=CIRCLE('',#954,0.00300903213865133);
#592=CIRCLE('',#956,0.00299853677173334);
#593=CIRCLE('',#958,0.00299853677173334);
#594=CIRCLE('',#959,0.00299853677173334);
#595=CIRCLE('',#961,0.005033645);
#596=CIRCLE('',#962,0.005033645);
#597=CIRCLE('',#965,0.005033645);
#598=CIRCLE('',#966,0.005033645);
#599=CIRCLE('',#968,0.0728565967132978);
#600=CIRCLE('',#969,0.0728565967132978);
#601=CIRCLE('',#971,0.005033645);
#602=CIRCLE('',#972,0.005033645);
#603=CIRCLE('',#975,0.005033645);
#604=CIRCLE('',#976,0.005033645);
#605=CIRCLE('',#978,0.0337982801906606);
#606=CIRCLE('',#979,0.0337982801906606);
#607=CIRCLE('',#981,0.0337982801906606);
#608=CIRCLE('',#982,0.0337982801906606);
#609=CIRCLE('',#984,0.0337982801906606);
#610=CIRCLE('',#985,0.0337982801906606);
#611=EDGE_LOOP('',(#127));
#612=EDGE_LOOP('',(#128));
#613=EDGE_LOOP('',(#129));
#614=EDGE_LOOP('',(#130));
#615=EDGE_LOOP('',(#131));
#616=EDGE_LOOP('',(#132));
#617=EDGE_LOOP('',(#133,#134,#135,#136,#137,#138,#139,#140));
#618=EDGE_LOOP('',(#141));
#619=EDGE_LOOP('',(#142));
#620=EDGE_LOOP('',(#143));
#621=EDGE_LOOP('',(#144));
#622=EDGE_LOOP('',(#145));
#623=EDGE_LOOP('',(#146));
#624=EDGE_LOOP('',(#147,#148,#149,#150,#151,#152,#153,#154));
#625=EDGE_LOOP('',(#155));
#626=EDGE_LOOP('',(#156));
#627=EDGE_LOOP('',(#157));
#628=EDGE_LOOP('',(#158));
#629=EDGE_LOOP('',(#159));
#630=EDGE_LOOP('',(#160,#161,#162,#163,#164,#165,#166,#167));
#631=EDGE_LOOP('',(#168));
#632=EDGE_LOOP('',(#169));
#633=EDGE_LOOP('',(#170));
#634=EDGE_LOOP('',(#171));
#635=EDGE_LOOP('',(#172));
#636=EDGE_LOOP('',(#173,#174,#175,#176,#177,#178,#179,#180));
#637=EDGE_LOOP('',(#181,#182,#183,#184));
#638=EDGE_LOOP('',(#185,#186,#187,#188));
#639=EDGE_LOOP('',(#189,#190,#191,#192));
#640=EDGE_LOOP('',(#193,#194,#195,#196));
#641=EDGE_LOOP('',(#197,#198,#199,#200));
#642=EDGE_LOOP('',(#201,#202,#203,#204));
#643=EDGE_LOOP('',(#205,#206,#207,#208));
#644=EDGE_LOOP('',(#209,#210,#211,#212));
#645=EDGE_LOOP('',(#213,#214,#215,#216));
#646=EDGE_LOOP('',(#217,#218,#219,#220));
#647=EDGE_LOOP('',(#221,#222,#223,#224));
#648=EDGE_LOOP('',(#225,#226,#227,#228));
#649=EDGE_LOOP('',(#229,#230,#231,#232));
#650=EDGE_LOOP('',(#233));
#651=EDGE_LOOP('',(#234));
#652=EDGE_LOOP('',(#235));
#653=EDGE_LOOP('',(#236));
#654=EDGE_LOOP('',(#237));
#655=EDGE_LOOP('',(#238));
#656=EDGE_LOOP('',(#239));
#657=EDGE_LOOP('',(#240));
#658=EDGE_LOOP('',(#241));
#659=EDGE_LOOP('',(#242));
#660=EDGE_LOOP('',(#243));
#661=EDGE_LOOP('',(#244));
#662=EDGE_LOOP('',(#245));
#663=EDGE_LOOP('',(#246));
#664=EDGE_LOOP('',(#247));
#665=EDGE_LOOP('',(#248));
#666=EDGE_LOOP('',(#249));
#667=EDGE_LOOP('',(#250));
#668=EDGE_LOOP('',(#251,#252,#253,#254));
#669=EDGE_LOOP('',(#255));
#670=EDGE_LOOP('',(#256));
#671=EDGE_LOOP('',(#257));
#672=EDGE_LOOP('',(#258));
#673=EDGE_LOOP('',(#259,#260,#261,#262));
#674=EDGE_LOOP('',(#263));
#675=EDGE_LOOP('',(#264));
#676=EDGE_LOOP('',(#265,#266,#267,#268));
#677=EDGE_LOOP('',(#269,#270,#271,#272));
#678=EDGE_LOOP('',(#273,#274,#275,#276));
#679=EDGE_LOOP('',(#277,#278,#279,#280));
#680=EDGE_LOOP('',(#281,#282,#283,#284));
#681=EDGE_LOOP('',(#285,#286,#287,#288));
#682=EDGE_LOOP('',(#289,#290,#291,#292));
#683=EDGE_LOOP('',(#293,#294,#295,#296));
#684=EDGE_LOOP('',(#297,#298,#299,#300,#301,#302,#303,#304,#305,#306,#307,
#308));
#685=EDGE_LOOP('',(#309,#310,#311,#312,#313,#314,#315,#316,#317,#318,#319,
#320));
#686=EDGE_LOOP('',(#321,#322,#323,#324));
#687=EDGE_LOOP('',(#325,#326,#327,#328));
#688=EDGE_LOOP('',(#329));
#689=EDGE_LOOP('',(#330));
#690=EDGE_LOOP('',(#331,#332,#333,#334));
#691=EDGE_LOOP('',(#335,#336,#337,#338));
#692=EDGE_LOOP('',(#339,#340,#341,#342));
#693=EDGE_LOOP('',(#343));
#694=EDGE_LOOP('',(#344));
#695=EDGE_LOOP('',(#345));
#696=EDGE_LOOP('',(#346));
#697=EDGE_LOOP('',(#347));
#698=EDGE_LOOP('',(#348));
#699=EDGE_LOOP('',(#349));
#700=EDGE_LOOP('',(#350));
#701=FACE_BOUND('',#611,.T.);
#702=FACE_BOUND('',#612,.T.);
#703=FACE_BOUND('',#613,.T.);
#704=FACE_BOUND('',#614,.T.);
#705=FACE_BOUND('',#615,.T.);
#706=FACE_BOUND('',#616,.T.);
#707=FACE_BOUND('',#617,.T.);
#708=FACE_BOUND('',#618,.T.);
#709=FACE_BOUND('',#619,.T.);
#710=FACE_BOUND('',#620,.T.);
#711=FACE_BOUND('',#621,.T.);
#712=FACE_BOUND('',#622,.T.);
#713=FACE_BOUND('',#623,.T.);
#714=FACE_BOUND('',#624,.T.);
#715=FACE_BOUND('',#625,.T.);
#716=FACE_BOUND('',#626,.T.);
#717=FACE_BOUND('',#627,.T.);
#718=FACE_BOUND('',#628,.T.);
#719=FACE_BOUND('',#629,.T.);
#720=FACE_BOUND('',#630,.T.);
#721=FACE_BOUND('',#631,.T.);
#722=FACE_BOUND('',#632,.T.);
#723=FACE_BOUND('',#633,.T.);
#724=FACE_BOUND('',#634,.T.);
#725=FACE_BOUND('',#635,.T.);
#726=FACE_BOUND('',#636,.T.);
#727=FACE_BOUND('',#637,.T.);
#728=FACE_BOUND('',#638,.T.);
#729=FACE_BOUND('',#639,.T.);
#730=FACE_BOUND('',#640,.T.);
#731=FACE_BOUND('',#641,.T.);
#732=FACE_BOUND('',#642,.T.);
#733=FACE_BOUND('',#643,.T.);
#734=FACE_BOUND('',#644,.T.);
#735=FACE_BOUND('',#645,.T.);
#736=FACE_BOUND('',#646,.T.);
#737=FACE_BOUND('',#647,.T.);
#738=FACE_BOUND('',#648,.T.);
#739=FACE_BOUND('',#649,.T.);
#740=FACE_BOUND('',#650,.T.);
#741=FACE_BOUND('',#651,.T.);
#742=FACE_BOUND('',#652,.T.);
#743=FACE_BOUND('',#653,.T.);
#744=FACE_BOUND('',#654,.T.);
#745=FACE_BOUND('',#655,.T.);
#746=FACE_BOUND('',#656,.T.);
#747=FACE_BOUND('',#657,.T.);
#748=FACE_BOUND('',#658,.T.);
#749=FACE_BOUND('',#659,.T.);
#750=FACE_BOUND('',#660,.T.);
#751=FACE_BOUND('',#661,.T.);
#752=FACE_BOUND('',#662,.T.);
#753=FACE_BOUND('',#663,.T.);
#754=FACE_BOUND('',#664,.T.);
#755=FACE_BOUND('',#665,.T.);
#756=FACE_BOUND('',#666,.T.);
#757=FACE_BOUND('',#667,.T.);
#758=FACE_BOUND('',#668,.T.);
#759=FACE_BOUND('',#669,.T.);
#760=FACE_BOUND('',#670,.T.);
#761=FACE_BOUND('',#671,.T.);
#762=FACE_BOUND('',#672,.T.);
#763=FACE_BOUND('',#673,.T.);
#764=FACE_BOUND('',#674,.T.);
#765=FACE_BOUND('',#675,.T.);
#766=FACE_BOUND('',#676,.T.);
#767=FACE_BOUND('',#677,.T.);
#768=FACE_BOUND('',#678,.T.);
#769=FACE_BOUND('',#679,.T.);
#770=FACE_BOUND('',#680,.T.);
#771=FACE_BOUND('',#681,.T.);
#772=FACE_BOUND('',#682,.T.);
#773=FACE_BOUND('',#683,.T.);
#774=FACE_BOUND('',#684,.T.);
#775=FACE_BOUND('',#685,.T.);
#776=FACE_BOUND('',#686,.T.);
#777=FACE_BOUND('',#687,.T.);
#778=FACE_BOUND('',#688,.T.);
#779=FACE_BOUND('',#689,.T.);
#780=FACE_BOUND('',#690,.T.);
#781=FACE_BOUND('',#691,.T.);
#782=FACE_BOUND('',#692,.T.);
#783=FACE_BOUND('',#693,.T.);
#784=FACE_BOUND('',#694,.T.);
#785=FACE_BOUND('',#695,.T.);
#786=FACE_BOUND('',#696,.T.);
#787=FACE_BOUND('',#697,.T.);
#788=FACE_BOUND('',#698,.T.);
#789=FACE_BOUND('',#699,.T.);
#790=FACE_BOUND('',#700,.T.);
#791=CYLINDRICAL_SURFACE('',#883,0.0016176715622818);
#792=CYLINDRICAL_SURFACE('',#886,0.00168487109870454);
#793=CYLINDRICAL_SURFACE('',#925,0.01143);
#794=CYLINDRICAL_SURFACE('',#927,0.01143);
#795=CYLINDRICAL_SURFACE('',#930,0.002493645);
#796=CYLINDRICAL_SURFACE('',#932,0.002493645);
#797=CYLINDRICAL_SURFACE('',#934,0.002493645);
#798=CYLINDRICAL_SURFACE('',#936,0.002493645);
#799=CYLINDRICAL_SURFACE('',#937,0.0753965967132978);
#800=CYLINDRICAL_SURFACE('',#941,0.0825874047833929);
#801=CYLINDRICAL_SURFACE('',#942,0.0312582801906606);
#802=CYLINDRICAL_SURFACE('',#948,0.00168487109870454);
#803=CYLINDRICAL_SURFACE('',#949,0.0016848709);
#804=CYLINDRICAL_SURFACE('',#952,0.00300903213865133);
#805=CYLINDRICAL_SURFACE('',#957,0.00299853677173334);
#806=CYLINDRICAL_SURFACE('',#960,0.005033645);
#807=CYLINDRICAL_SURFACE('',#964,0.005033645);
#808=CYLINDRICAL_SURFACE('',#967,0.0728565967132978);
#809=CYLINDRICAL_SURFACE('',#970,0.005033645);
#810=CYLINDRICAL_SURFACE('',#974,0.005033645);
#811=CYLINDRICAL_SURFACE('',#977,0.0337982801906606);
#812=CYLINDRICAL_SURFACE('',#986,0.0337982801906606);
#813=CYLINDRICAL_SURFACE('',#987,0.0337982801906606);
#814=CYLINDRICAL_SURFACE('',#988,0.00862189766486563);
#815=CYLINDRICAL_SURFACE('',#989,0.01143);
#816=CYLINDRICAL_SURFACE('',#991,0.01143);
#817=CYLINDRICAL_SURFACE('',#992,0.0017038066);
#818=CYLINDRICAL_SURFACE('',#993,0.0017038066);
#819=CYLINDRICAL_SURFACE('',#994,0.0017038066);
#820=CYLINDRICAL_SURFACE('',#995,0.0017038066);
#821=ADVANCED_FACE('',(#701,#702),#791,.F.);
#822=ADVANCED_FACE('',(#703,#704),#792,.F.);
#823=ADVANCED_FACE('',(#705,#706,#707,#708,#709),#108,.T.);
#824=ADVANCED_FACE('',(#710,#711,#712,#713,#714,#715),#109,.T.);
#825=ADVANCED_FACE('',(#716,#717,#718,#719,#720,#721,#722,#723,#724,#725,
#726),#110,.F.);
#826=ADVANCED_FACE('',(#727),#111,.T.);
#827=ADVANCED_FACE('',(#728),#793,.T.);
#828=ADVANCED_FACE('',(#729),#112,.F.);
#829=ADVANCED_FACE('',(#730),#794,.T.);
#830=ADVANCED_FACE('',(#731),#113,.F.);
#831=ADVANCED_FACE('',(#732),#114,.T.);
#832=ADVANCED_FACE('',(#733),#795,.F.);
#833=ADVANCED_FACE('',(#734),#115,.F.);
#834=ADVANCED_FACE('',(#735),#796,.F.);
#835=ADVANCED_FACE('',(#736),#116,.F.);
#836=ADVANCED_FACE('',(#737),#797,.F.);
#837=ADVANCED_FACE('',(#738),#117,.T.);
#838=ADVANCED_FACE('',(#739),#798,.F.);
#839=ADVANCED_FACE('',(#740,#741),#799,.T.);
#840=ADVANCED_FACE('',(#742,#743),#118,.T.);
#841=ADVANCED_FACE('',(#744,#745),#800,.F.);
#842=ADVANCED_FACE('',(#746,#747),#801,.F.);
#843=ADVANCED_FACE('',(#748,#749,#750,#751),#119,.T.);
#844=ADVANCED_FACE('',(#752,#753),#802,.F.);
#845=ADVANCED_FACE('',(#754,#755),#803,.F.);
#846=ADVANCED_FACE('',(#756,#757),#120,.T.);
#847=ADVANCED_FACE('',(#758,#759,#760),#804,.F.);
#848=ADVANCED_FACE('',(#761,#762),#121,.T.);
#849=ADVANCED_FACE('',(#763,#764,#765),#805,.F.);
#850=ADVANCED_FACE('',(#766),#806,.T.);
#851=ADVANCED_FACE('',(#767),#122,.T.);
#852=ADVANCED_FACE('',(#768),#807,.T.);
#853=ADVANCED_FACE('',(#769),#808,.F.);
#854=ADVANCED_FACE('',(#770),#809,.T.);
#855=ADVANCED_FACE('',(#771),#123,.F.);
#856=ADVANCED_FACE('',(#772),#810,.T.);
#857=ADVANCED_FACE('',(#773),#811,.T.);
#858=ADVANCED_FACE('',(#774),#124,.F.);
#859=ADVANCED_FACE('',(#775),#125,.T.);
#860=ADVANCED_FACE('',(#776),#812,.T.);
#861=ADVANCED_FACE('',(#777),#813,.T.);
#862=ADVANCED_FACE('',(#778,#779),#814,.F.);
#863=ADVANCED_FACE('',(#780),#815,.T.);
#864=ADVANCED_FACE('',(#781),#126,.T.);
#865=ADVANCED_FACE('',(#782),#816,.T.);
#866=ADVANCED_FACE('',(#783,#784),#817,.F.);
#867=ADVANCED_FACE('',(#785,#786),#818,.F.);
#868=ADVANCED_FACE('',(#787,#788),#819,.F.);
#869=ADVANCED_FACE('',(#789,#790),#820,.F.);
#870=CLOSED_SHELL('',(#821,#822,#823,#824,#825,#826,#827,#828,#829,#830,
#831,#832,#833,#834,#835,#836,#837,#838,#839,#840,#841,#842,#843,#844,#845,
#846,#847,#848,#849,#850,#851,#852,#853,#854,#855,#856,#857,#858,#859,#860,
#861,#862,#863,#864,#865,#866,#867,#868,#869));
#871=STYLED_ITEM('',(#872),#879);
#872=PRESENTATION_STYLE_ASSIGNMENT((#873));
#873=SURFACE_STYLE_USAGE(.BOTH.,#874);
#874=SURFACE_SIDE_STYLE('',(#875));
#875=SURFACE_STYLE_FILL_AREA(#876);
#876=FILL_AREA_STYLE('',(#877));
#877=FILL_AREA_STYLE_COLOUR('',#878);
#878=COLOUR_RGB('',0.0862745098039216,0.32156862745098,0.580392156862745);
#879=MANIFOLD_SOLID_BREP('Part 3',#870);
#880=SHAPE_DEFINITION_REPRESENTATION(#1524,#881);
#881=SHAPE_REPRESENTATION('Part 3',(#882),#1519);
#882=AXIS2_PLACEMENT_3D('',#1272,#996,#997);
#883=AXIS2_PLACEMENT_3D('',#1273,#998,#999);
#884=AXIS2_PLACEMENT_3D('',#1274,#1000,#1001);
#885=AXIS2_PLACEMENT_3D('',#1276,#1002,#1003);
#886=AXIS2_PLACEMENT_3D('',#1278,#1004,#1005);
#887=AXIS2_PLACEMENT_3D('',#1279,#1006,#1007);
#888=AXIS2_PLACEMENT_3D('',#1281,#1008,#1009);
#889=AXIS2_PLACEMENT_3D('',#1283,#1010,#1011);
#890=AXIS2_PLACEMENT_3D('',#1284,#1012,#1013);
#891=AXIS2_PLACEMENT_3D('',#1286,#1014,#1015);
#892=AXIS2_PLACEMENT_3D('',#1288,#1016,#1017);
#893=AXIS2_PLACEMENT_3D('',#1293,#1019,#1020);
#894=AXIS2_PLACEMENT_3D('',#1297,#1022,#1023);
#895=AXIS2_PLACEMENT_3D('',#1301,#1025,#1026);
#896=AXIS2_PLACEMENT_3D('',#1304,#1028,#1029);
#897=AXIS2_PLACEMENT_3D('',#1306,#1030,#1031);
#898=AXIS2_PLACEMENT_3D('',#1308,#1032,#1033);
#899=AXIS2_PLACEMENT_3D('',#1309,#1034,#1035);
#900=AXIS2_PLACEMENT_3D('',#1311,#1036,#1037);
#901=AXIS2_PLACEMENT_3D('',#1313,#1038,#1039);
#902=AXIS2_PLACEMENT_3D('',#1315,#1040,#1041);
#903=AXIS2_PLACEMENT_3D('',#1317,#1042,#1043);
#904=AXIS2_PLACEMENT_3D('',#1322,#1045,#1046);
#905=AXIS2_PLACEMENT_3D('',#1326,#1048,#1049);
#906=AXIS2_PLACEMENT_3D('',#1330,#1051,#1052);
#907=AXIS2_PLACEMENT_3D('',#1333,#1054,#1055);
#908=AXIS2_PLACEMENT_3D('',#1335,#1056,#1057);
#909=AXIS2_PLACEMENT_3D('',#1336,#1058,#1059);
#910=AXIS2_PLACEMENT_3D('',#1338,#1060,#1061);
#911=AXIS2_PLACEMENT_3D('',#1340,#1062,#1063);
#912=AXIS2_PLACEMENT_3D('',#1342,#1064,#1065);
#913=AXIS2_PLACEMENT_3D('',#1347,#1067,#1068);
#914=AXIS2_PLACEMENT_3D('',#1351,#1070,#1071);
#915=AXIS2_PLACEMENT_3D('',#1355,#1073,#1074);
#916=AXIS2_PLACEMENT_3D('',#1359,#1076,#1077);
#917=AXIS2_PLACEMENT_3D('',#1360,#1078,#1079);
#918=AXIS2_PLACEMENT_3D('',#1362,#1080,#1081);
#919=AXIS2_PLACEMENT_3D('',#1364,#1082,#1083);
#920=AXIS2_PLACEMENT_3D('',#1369,#1085,#1086);
#921=AXIS2_PLACEMENT_3D('',#1373,#1088,#1089);
#922=AXIS2_PLACEMENT_3D('',#1377,#1091,#1092);
#923=AXIS2_PLACEMENT_3D('',#1381,#1094,#1095);
#924=AXIS2_PLACEMENT_3D('',#1382,#1096,#1097);
#925=AXIS2_PLACEMENT_3D('',#1385,#1100,#1101);
#926=AXIS2_PLACEMENT_3D('',#1387,#1103,#1104);
#927=AXIS2_PLACEMENT_3D('',#1389,#1106,#1107);
#928=AXIS2_PLACEMENT_3D('',#1391,#1109,#1110);
#929=AXIS2_PLACEMENT_3D('',#1393,#1112,#1113);
#930=AXIS2_PLACEMENT_3D('',#1396,#1116,#1117);
#931=AXIS2_PLACEMENT_3D('',#1398,#1119,#1120);
#932=AXIS2_PLACEMENT_3D('',#1400,#1122,#1123);
#933=AXIS2_PLACEMENT_3D('',#1402,#1125,#1126);
#934=AXIS2_PLACEMENT_3D('',#1404,#1128,#1129);
#935=AXIS2_PLACEMENT_3D('',#1406,#1131,#1132);
#936=AXIS2_PLACEMENT_3D('',#1408,#1134,#1135);
#937=AXIS2_PLACEMENT_3D('',#1409,#1136,#1137);
#938=AXIS2_PLACEMENT_3D('',#1410,#1138,#1139);
#939=AXIS2_PLACEMENT_3D('',#1412,#1140,#1141);
#940=AXIS2_PLACEMENT_3D('',#1413,#1142,#1143);
#941=AXIS2_PLACEMENT_3D('',#1415,#1144,#1145);
#942=AXIS2_PLACEMENT_3D('',#1416,#1146,#1147);
#943=AXIS2_PLACEMENT_3D('',#1417,#1148,#1149);
#944=AXIS2_PLACEMENT_3D('',#1419,#1150,#1151);
#945=AXIS2_PLACEMENT_3D('',#1420,#1152,#1153);
#946=AXIS2_PLACEMENT_3D('',#1422,#1154,#1155);
#947=AXIS2_PLACEMENT_3D('',#1424,#1156,#1157);
#948=AXIS2_PLACEMENT_3D('',#1426,#1158,#1159);
#949=AXIS2_PLACEMENT_3D('',#1427,#1160,#1161);
#950=AXIS2_PLACEMENT_3D('',#1428,#1162,#1163);
#951=AXIS2_PLACEMENT_3D('',#1429,#1164,#1165);
#952=AXIS2_PLACEMENT_3D('',#1431,#1166,#1167);
#953=AXIS2_PLACEMENT_3D('',#1435,#1169,#1170);
#954=AXIS2_PLACEMENT_3D('',#1439,#1172,#1173);
#955=AXIS2_PLACEMENT_3D('',#1440,#1174,#1175);
#956=AXIS2_PLACEMENT_3D('',#1441,#1176,#1177);
#957=AXIS2_PLACEMENT_3D('',#1443,#1178,#1179);
#958=AXIS2_PLACEMENT_3D('',#1444,#1180,#1181);
#959=AXIS2_PLACEMENT_3D('',#1449,#1183,#1184);
#960=AXIS2_PLACEMENT_3D('',#1452,#1186,#1187);
#961=AXIS2_PLACEMENT_3D('',#1453,#1188,#1189);
#962=AXIS2_PLACEMENT_3D('',#1458,#1191,#1192);
#963=AXIS2_PLACEMENT_3D('',#1461,#1194,#1195);
#964=AXIS2_PLACEMENT_3D('',#1467,#1199,#1200);
#965=AXIS2_PLACEMENT_3D('',#1468,#1201,#1202);
#966=AXIS2_PLACEMENT_3D('',#1470,#1203,#1204);
#967=AXIS2_PLACEMENT_3D('',#1473,#1206,#1207);
#968=AXIS2_PLACEMENT_3D('',#1474,#1208,#1209);
#969=AXIS2_PLACEMENT_3D('',#1476,#1210,#1211);
#970=AXIS2_PLACEMENT_3D('',#1479,#1213,#1214);
#971=AXIS2_PLACEMENT_3D('',#1480,#1215,#1216);
#972=AXIS2_PLACEMENT_3D('',#1484,#1218,#1219);
#973=AXIS2_PLACEMENT_3D('',#1485,#1220,#1221);
#974=AXIS2_PLACEMENT_3D('',#1491,#1225,#1226);
#975=AXIS2_PLACEMENT_3D('',#1495,#1228,#1229);
#976=AXIS2_PLACEMENT_3D('',#1496,#1230,#1231);
#977=AXIS2_PLACEMENT_3D('',#1497,#1232,#1233);
#978=AXIS2_PLACEMENT_3D('',#1498,#1234,#1235);
#979=AXIS2_PLACEMENT_3D('',#1499,#1236,#1237);
#980=AXIS2_PLACEMENT_3D('',#1500,#1238,#1239);
#981=AXIS2_PLACEMENT_3D('',#1501,#1240,#1241);
#982=AXIS2_PLACEMENT_3D('',#1502,#1242,#1243);
#983=AXIS2_PLACEMENT_3D('',#1503,#1244,#1245);
#984=AXIS2_PLACEMENT_3D('',#1504,#1246,#1247);
#985=AXIS2_PLACEMENT_3D('',#1505,#1248,#1249);
#986=AXIS2_PLACEMENT_3D('',#1506,#1250,#1251);
#987=AXIS2_PLACEMENT_3D('',#1507,#1252,#1253);
#988=AXIS2_PLACEMENT_3D('',#1508,#1254,#1255);
#989=AXIS2_PLACEMENT_3D('',#1509,#1256,#1257);
#990=AXIS2_PLACEMENT_3D('',#1511,#1259,#1260);
#991=AXIS2_PLACEMENT_3D('',#1513,#1262,#1263);
#992=AXIS2_PLACEMENT_3D('',#1514,#1264,#1265);
#993=AXIS2_PLACEMENT_3D('',#1515,#1266,#1267);
#994=AXIS2_PLACEMENT_3D('',#1516,#1268,#1269);
#995=AXIS2_PLACEMENT_3D('',#1517,#1270,#1271);
#996=DIRECTION('',(0.,0.,1.));
#997=DIRECTION('',(1.,0.,0.));
#998=DIRECTION('',(-1.22464679914735E-16,1.24721289829231E-16,-1.));
#999=DIRECTION('',(0.,1.,1.24721289829231E-16));
#1000=DIRECTION('',(0.,0.,1.));
#1001=DIRECTION('',(1.,0.,0.));
#1002=DIRECTION('',(0.,0.,1.));
#1003=DIRECTION('',(1.,0.,0.));
#1004=DIRECTION('',(-1.22464679914735E-16,1.24721289829231E-16,-1.));
#1005=DIRECTION('',(0.,1.,1.24721289829231E-16));
#1006=DIRECTION('',(0.,0.,1.));
#1007=DIRECTION('',(1.,0.,0.));
#1008=DIRECTION('',(0.,0.,1.));
#1009=DIRECTION('',(1.,0.,0.));
#1010=DIRECTION('',(0.,0.,1.));
#1011=DIRECTION('',(1.,0.,0.));
#1012=DIRECTION('',(0.,0.,1.));
#1013=DIRECTION('',(1.,0.,0.));
#1014=DIRECTION('',(0.,0.,1.));
#1015=DIRECTION('',(1.,0.,0.));
#1016=DIRECTION('',(0.,0.,1.));
#1017=DIRECTION('',(1.,0.,0.));
#1018=DIRECTION('',(-0.138820323778017,-0.990317584265859,0.));
#1019=DIRECTION('',(0.,0.,1.));
#1020=DIRECTION('',(1.,0.,0.));
#1021=DIRECTION('',(-1.,-1.81430997492452E-14,0.));
#1022=DIRECTION('',(0.,0.,1.));
#1023=DIRECTION('',(1.,0.,0.));
#1024=DIRECTION('',(0.138820323778016,-0.990317584265859,0.));
#1025=DIRECTION('',(0.,0.,1.));
#1026=DIRECTION('',(1.,0.,0.));
#1027=DIRECTION('',(-1.,0.,0.));
#1028=DIRECTION('',(0.,0.,-1.));
#1029=DIRECTION('',(-1.,0.,0.));
#1030=DIRECTION('',(0.,0.,-1.));
#1031=DIRECTION('',(-1.,0.,0.));
#1032=DIRECTION('',(0.,0.,1.));
#1033=DIRECTION('',(1.,0.,0.));
#1034=DIRECTION('',(0.,0.,1.));
#1035=DIRECTION('',(1.,0.,0.));
#1036=DIRECTION('',(0.,0.,1.));
#1037=DIRECTION('',(1.,0.,0.));
#1038=DIRECTION('',(0.,0.,1.));
#1039=DIRECTION('',(1.,0.,0.));
#1040=DIRECTION('',(0.,0.,1.));
#1041=DIRECTION('',(1.,0.,0.));
#1042=DIRECTION('',(0.,0.,1.));
#1043=DIRECTION('',(1.,0.,0.));
#1044=DIRECTION('',(0.,-1.,0.));
#1045=DIRECTION('',(0.,0.,1.));
#1046=DIRECTION('',(1.,0.,0.));
#1047=DIRECTION('',(-1.,0.,0.));
#1048=DIRECTION('',(0.,0.,1.));
#1049=DIRECTION('',(1.,0.,0.));
#1050=DIRECTION('',(0.,-1.,0.));
#1051=DIRECTION('',(0.,0.,1.));
#1052=DIRECTION('',(1.,0.,0.));
#1053=DIRECTION('',(1.,0.,0.));
#1054=DIRECTION('',(0.,0.,1.));
#1055=DIRECTION('',(1.,0.,0.));
#1056=DIRECTION('',(0.,0.,1.));
#1057=DIRECTION('',(1.,0.,0.));
#1058=DIRECTION('',(0.,0.,1.));
#1059=DIRECTION('',(1.,0.,0.));
#1060=DIRECTION('',(0.,0.,1.));
#1061=DIRECTION('',(1.,0.,0.));
#1062=DIRECTION('',(0.,0.,1.));
#1063=DIRECTION('',(1.,0.,0.));
#1064=DIRECTION('',(0.,0.,1.));
#1065=DIRECTION('',(1.,0.,0.));
#1066=DIRECTION('',(0.,-1.,0.));
#1067=DIRECTION('',(0.,0.,1.));
#1068=DIRECTION('',(1.,0.,0.));
#1069=DIRECTION('',(1.,0.,0.));
#1070=DIRECTION('',(0.,0.,1.));
#1071=DIRECTION('',(1.,0.,0.));
#1072=DIRECTION('',(0.,-1.,0.));
#1073=DIRECTION('',(0.,0.,1.));
#1074=DIRECTION('',(1.,0.,0.));
#1075=DIRECTION('',(-1.,0.,0.));
#1076=DIRECTION('',(0.,0.,1.));
#1077=DIRECTION('',(1.,0.,0.));
#1078=DIRECTION('',(0.,0.,1.));
#1079=DIRECTION('',(1.,0.,0.));
#1080=DIRECTION('',(0.,0.,1.));
#1081=DIRECTION('',(1.,0.,0.));
#1082=DIRECTION('',(0.,0.,1.));
#1083=DIRECTION('',(1.,0.,0.));
#1084=DIRECTION('',(-0.138820323778017,-0.990317584265859,0.));
#1085=DIRECTION('',(0.,0.,1.));
#1086=DIRECTION('',(1.,0.,0.));
#1087=DIRECTION('',(-1.,0.,0.));
#1088=DIRECTION('',(0.,0.,1.));
#1089=DIRECTION('',(1.,0.,0.));
#1090=DIRECTION('',(0.138820323778016,-0.990317584265859,0.));
#1091=DIRECTION('',(0.,0.,1.));
#1092=DIRECTION('',(1.,0.,0.));
#1093=DIRECTION('',(-1.,-1.81430997492452E-14,0.));
#1094=DIRECTION('',(0.,0.,1.));
#1095=DIRECTION('',(1.,0.,0.));
#1096=DIRECTION('',(1.,0.,0.));
#1097=DIRECTION('',(0.,0.,-1.));
#1098=DIRECTION('',(0.,0.,-1.));
#1099=DIRECTION('',(0.,0.,1.));
#1100=DIRECTION('',(0.,0.,-1.));
#1101=DIRECTION('',(-1.,0.,0.));
#1102=DIRECTION('',(0.,0.,-1.));
#1103=DIRECTION('',(0.,-1.,0.));
#1104=DIRECTION('',(0.,0.,-1.));
#1105=DIRECTION('',(0.,0.,-1.));
#1106=DIRECTION('',(0.,0.,-1.));
#1107=DIRECTION('',(-1.,0.,0.));
#1108=DIRECTION('',(0.,0.,-1.));
#1109=DIRECTION('',(1.,0.,0.));
#1110=DIRECTION('',(0.,0.,-1.));
#1111=DIRECTION('',(0.,0.,1.));
#1112=DIRECTION('',(-0.990317584265859,0.138820323778016,0.));
#1113=DIRECTION('',(-0.138820323778017,-0.990317584265859,0.));
#1114=DIRECTION('',(0.,0.,1.));
#1115=DIRECTION('',(0.,0.,1.));
#1116=DIRECTION('',(0.,0.,1.));
#1117=DIRECTION('',(1.,0.,0.));
#1118=DIRECTION('',(0.,0.,1.));
#1119=DIRECTION('',(0.,1.,0.));
#1120=DIRECTION('',(0.,0.,1.));
#1121=DIRECTION('',(0.,0.,1.));
#1122=DIRECTION('',(0.,0.,1.));
#1123=DIRECTION('',(1.,0.,0.));
#1124=DIRECTION('',(0.,0.,1.));
#1125=DIRECTION('',(-0.990317584265859,-0.138820323778016,0.));
#1126=DIRECTION('',(0.138820323778016,-0.990317584265859,0.));
#1127=DIRECTION('',(0.,0.,1.));
#1128=DIRECTION('',(0.,0.,1.));
#1129=DIRECTION('',(1.,0.,0.));
#1130=DIRECTION('',(0.,0.,1.));
#1131=DIRECTION('',(-1.81430997492452E-14,1.,0.));
#1132=DIRECTION('',(-1.,-1.81430997492452E-14,0.));
#1133=DIRECTION('',(0.,0.,1.));
#1134=DIRECTION('',(0.,0.,1.));
#1135=DIRECTION('',(1.,0.,0.));
#1136=DIRECTION('',(0.,0.,-1.));
#1137=DIRECTION('',(-1.,0.,0.));
#1138=DIRECTION('',(0.,0.,-1.));
#1139=DIRECTION('',(-1.,0.,0.));
#1140=DIRECTION('',(0.,0.,1.));
#1141=DIRECTION('',(1.,0.,0.));
#1142=DIRECTION('',(0.,0.,1.));
#1143=DIRECTION('',(1.,0.,0.));
#1144=DIRECTION('',(0.,0.,1.));
#1145=DIRECTION('',(1.,0.,0.));
#1146=DIRECTION('',(0.,0.,-1.));
#1147=DIRECTION('',(-1.,0.,0.));
#1148=DIRECTION('',(0.,0.,-1.));
#1149=DIRECTION('',(-1.,0.,0.));
#1150=DIRECTION('',(0.,0.,1.));
#1151=DIRECTION('',(1.,0.,0.));
#1152=DIRECTION('',(0.,0.,1.));
#1153=DIRECTION('',(1.,0.,0.));
#1154=DIRECTION('',(0.,0.,1.));
#1155=DIRECTION('',(1.,0.,0.));
#1156=DIRECTION('',(0.,0.,1.));
#1157=DIRECTION('',(1.,0.,0.));
#1158=DIRECTION('',(-1.22464679914735E-16,1.24721289829231E-16,-1.));
#1159=DIRECTION('',(0.,1.,1.24721289829231E-16));
#1160=DIRECTION('',(-1.22464679914735E-16,1.24721289829231E-16,-1.));
#1161=DIRECTION('',(0.,1.,1.24721289829231E-16));
#1162=DIRECTION('',(0.,0.,1.));
#1163=DIRECTION('',(1.,0.,0.));
#1164=DIRECTION('',(0.,0.,1.));
#1165=DIRECTION('',(1.,0.,0.));
#1166=DIRECTION('',(0.,0.,1.));
#1167=DIRECTION('',(1.,0.,0.));
#1168=DIRECTION('',(0.,0.,1.));
#1169=DIRECTION('',(0.,0.,1.));
#1170=DIRECTION('',(1.,0.,0.));
#1171=DIRECTION('',(0.,0.,1.));
#1172=DIRECTION('',(0.,0.,1.));
#1173=DIRECTION('',(1.,0.,0.));
#1174=DIRECTION('',(0.,0.,1.));
#1175=DIRECTION('',(1.,0.,0.));
#1176=DIRECTION('',(0.,0.,1.));
#1177=DIRECTION('',(1.,0.,0.));
#1178=DIRECTION('',(0.,0.,1.));
#1179=DIRECTION('',(1.,0.,0.));
#1180=DIRECTION('',(0.,0.,1.));
#1181=DIRECTION('',(1.,0.,0.));
#1182=DIRECTION('',(0.,0.,1.));
#1183=DIRECTION('',(0.,0.,1.));
#1184=DIRECTION('',(1.,0.,0.));
#1185=DIRECTION('',(0.,0.,1.));
#1186=DIRECTION('',(0.,0.,1.));
#1187=DIRECTION('',(1.,0.,0.));
#1188=DIRECTION('',(0.,0.,1.));
#1189=DIRECTION('',(1.,0.,0.));
#1190=DIRECTION('',(0.,0.,1.));
#1191=DIRECTION('',(0.,0.,1.));
#1192=DIRECTION('',(1.,0.,0.));
#1193=DIRECTION('',(0.,0.,-1.));
#1194=DIRECTION('',(-0.990317584265859,-0.138820323778016,0.));
#1195=DIRECTION('',(0.138820323778016,-0.990317584265859,0.));
#1196=DIRECTION('',(0.138820323778016,-0.990317584265859,0.));
#1197=DIRECTION('',(0.,0.,1.));
#1198=DIRECTION('',(0.138820323778016,-0.990317584265859,0.));
#1199=DIRECTION('',(0.,0.,1.));
#1200=DIRECTION('',(1.,0.,0.));
#1201=DIRECTION('',(0.,0.,1.));
#1202=DIRECTION('',(1.,0.,0.));
#1203=DIRECTION('',(0.,0.,1.));
#1204=DIRECTION('',(1.,0.,0.));
#1205=DIRECTION('',(0.,0.,1.));
#1206=DIRECTION('',(0.,0.,-1.));
#1207=DIRECTION('',(-1.,0.,0.));
#1208=DIRECTION('',(0.,0.,1.));
#1209=DIRECTION('',(1.,0.,0.));
#1210=DIRECTION('',(0.,0.,1.));
#1211=DIRECTION('',(1.,0.,0.));
#1212=DIRECTION('',(0.,0.,1.));
#1213=DIRECTION('',(0.,0.,1.));
#1214=DIRECTION('',(1.,0.,0.));
#1215=DIRECTION('',(0.,0.,1.));
#1216=DIRECTION('',(1.,0.,0.));
#1217=DIRECTION('',(0.,0.,1.));
#1218=DIRECTION('',(0.,0.,1.));
#1219=DIRECTION('',(1.,0.,0.));
#1220=DIRECTION('',(-0.990317584265859,0.138820323778016,0.));
#1221=DIRECTION('',(-0.138820323778017,-0.990317584265859,0.));
#1222=DIRECTION('',(-0.138820323778017,-0.990317584265859,0.));
#1223=DIRECTION('',(0.,0.,1.));
#1224=DIRECTION('',(-0.138820323778017,-0.990317584265859,0.));
#1225=DIRECTION('',(0.,0.,1.));
#1226=DIRECTION('',(1.,0.,0.));
#1227=DIRECTION('',(0.,0.,-1.));
#1228=DIRECTION('',(0.,0.,1.));
#1229=DIRECTION('',(1.,0.,0.));
#1230=DIRECTION('',(0.,0.,1.));
#1231=DIRECTION('',(1.,0.,0.));
#1232=DIRECTION('',(0.,0.,-1.));
#1233=DIRECTION('',(-1.,0.,0.));
#1234=DIRECTION('',(0.,0.,1.));
#1235=DIRECTION('',(1.,0.,0.));
#1236=DIRECTION('',(0.,0.,1.));
#1237=DIRECTION('',(1.,0.,0.));
#1238=DIRECTION('',(0.,0.,1.));
#1239=DIRECTION('',(1.,0.,0.));
#1240=DIRECTION('',(0.,0.,1.));
#1241=DIRECTION('',(1.,0.,0.));
#1242=DIRECTION('',(0.,0.,1.));
#1243=DIRECTION('',(1.,0.,0.));
#1244=DIRECTION('',(0.,0.,1.));
#1245=DIRECTION('',(1.,0.,0.));
#1246=DIRECTION('',(0.,0.,1.));
#1247=DIRECTION('',(1.,0.,0.));
#1248=DIRECTION('',(0.,0.,1.));
#1249=DIRECTION('',(1.,0.,0.));
#1250=DIRECTION('',(0.,0.,-1.));
#1251=DIRECTION('',(-1.,0.,0.));
#1252=DIRECTION('',(0.,0.,-1.));
#1253=DIRECTION('',(-1.,0.,0.));
#1254=DIRECTION('',(-1.02630082345318E-16,-1.95777352619011E-17,-1.));
#1255=DIRECTION('',(-1.,0.,1.02630082345318E-16));
#1256=DIRECTION('',(0.,0.,1.));
#1257=DIRECTION('',(1.,0.,0.));
#1258=DIRECTION('',(0.,0.,1.));
#1259=DIRECTION('',(0.,-1.,0.));
#1260=DIRECTION('',(0.,0.,-1.));
#1261=DIRECTION('',(0.,0.,1.));
#1262=DIRECTION('',(0.,0.,1.));
#1263=DIRECTION('',(1.,0.,0.));
#1264=DIRECTION('',(0.,0.,1.));
#1265=DIRECTION('',(1.,0.,0.));
#1266=DIRECTION('',(0.,0.,1.));
#1267=DIRECTION('',(1.,0.,0.));
#1268=DIRECTION('',(0.,0.,1.));
#1269=DIRECTION('',(1.,0.,0.));
#1270=DIRECTION('',(0.,0.,1.));
#1271=DIRECTION('',(1.,0.,0.));
#1272=CARTESIAN_POINT('',(0.,0.,0.));
#1273=CARTESIAN_POINT('',(-0.03416,-0.0049104,-0.0782960750610683));
#1274=CARTESIAN_POINT('',(-0.03416,-0.0049104,-0.102362));
#1275=CARTESIAN_POINT('',(-0.0325423284377182,-0.0049104,-0.102362));
#1276=CARTESIAN_POINT('',(-0.03416,-0.0049104,-0.0999620048));
#1277=CARTESIAN_POINT('',(-0.0325423284377182,-0.0049104,-0.0999620048));
#1278=CARTESIAN_POINT('',(-0.03416,0.0050896,-0.0782960750610683));
#1279=CARTESIAN_POINT('',(-0.03416,0.0050896,-0.102362));
#1280=CARTESIAN_POINT('',(-0.0324751289012955,0.0050896,-0.102362));
#1281=CARTESIAN_POINT('',(-0.03416,0.0050896,-0.0999620048));
#1282=CARTESIAN_POINT('',(-0.0324751289012955,0.0050896,-0.0999620048));
#1283=CARTESIAN_POINT('',(0.,1.38777878078145E-17,-0.0937768));
#1284=CARTESIAN_POINT('',(-0.03416,0.0050896,-0.0937768));
#1285=CARTESIAN_POINT('',(-0.0311614632282667,0.0050896,-0.0937768));
#1286=CARTESIAN_POINT('',(-0.03416,-0.0049104,-0.0937768));
#1287=CARTESIAN_POINT('',(-0.0311509678613487,-0.0049104,-0.0937768));
#1288=CARTESIAN_POINT('',(0.00702611019958905,0.0717763053898621,-0.0937768));
#1289=CARTESIAN_POINT('',(0.0094956106920057,0.0714301367835746,-0.0937768));
#1290=CARTESIAN_POINT('',(0.00702611019958905,0.0742699503898621,-0.0937768));
#1291=CARTESIAN_POINT('',(-0.000507324322914652,7.11154965704235E-5,-0.0937768));
#1292=CARTESIAN_POINT('',(0.00419054171465219,0.0335847914405,-0.0937768));
#1293=CARTESIAN_POINT('',(0.00172104122223556,0.0339309600467874,-0.0937768));
#1294=CARTESIAN_POINT('',(0.00172104122223558,0.0314373150467874,-0.0937768));
#1295=CARTESIAN_POINT('',(-5.70370342742309E-16,0.0314373150467874,-0.0937768));
#1296=CARTESIAN_POINT('',(-0.00172104122223551,0.0314373150467873,-0.0937768));
#1297=CARTESIAN_POINT('',(-0.00172104122223555,0.0339309600467873,-0.0937768));
#1298=CARTESIAN_POINT('',(-0.00419054171465219,0.0335847914404998,-0.0937768));
#1299=CARTESIAN_POINT('',(0.000507324322914635,7.1115496570421E-5,-0.0937768));
#1300=CARTESIAN_POINT('',(-0.0094956106920057,0.0714301367835746,-0.0937768));
#1301=CARTESIAN_POINT('',(-0.00702611019958905,0.0717763053898621,-0.0937768));
#1302=CARTESIAN_POINT('',(-0.00702611019958905,0.0742699503898621,-0.0937768));
#1303=CARTESIAN_POINT('',(0.,0.0742699503898621,-0.0937768));
#1304=CARTESIAN_POINT('',(0.,-4.6167100415772E-18,-0.0937766222));
#1305=CARTESIAN_POINT('',(-0.0753965967132978,-2.3083550207886E-17,-0.0937766222));
#1306=CARTESIAN_POINT('',(0.,-1.91401763911718E-18,-0.0937766222));
#1307=CARTESIAN_POINT('',(-0.0312582801906606,-1.91401763911718E-18,-0.0937768));
#1308=CARTESIAN_POINT('',(0.,1.38777878078145E-17,-0.0937768));
#1309=CARTESIAN_POINT('',(0.0155008025467396,-0.0913833975791931,-0.0937768));
#1310=CARTESIAN_POINT('',(0.0172046091467396,-0.0913833975791931,-0.0937768));
#1311=CARTESIAN_POINT('',(-0.01549974642694,-0.0913829356431961,-0.0937768));
#1312=CARTESIAN_POINT('',(-0.01379593982694,-0.0913829356431961,-0.0937768));
#1313=CARTESIAN_POINT('',(-0.0154999168589711,-0.122383192181587,-0.0937768));
#1314=CARTESIAN_POINT('',(-0.0137961102589711,-0.122383192181587,-0.0937768));
#1315=CARTESIAN_POINT('',(0.0155001133680343,-0.122383370995522,-0.0937768));
#1316=CARTESIAN_POINT('',(0.0172039199680343,-0.122383370995522,-0.0937768));
#1317=CARTESIAN_POINT('',(0.08382,-0.123627196455002,-0.0937768));
#1318=CARTESIAN_POINT('',(0.08382,-0.135057196455002,-0.0937768));
#1319=CARTESIAN_POINT('',(0.09525,-0.123627196455002,-0.0937768));
#1320=CARTESIAN_POINT('',(0.09525,1.38777878078145E-17,-0.0937768));
#1321=CARTESIAN_POINT('',(0.09525,0.08382,-0.0937768));
#1322=CARTESIAN_POINT('',(0.08382,0.08382,-0.0937768));
#1323=CARTESIAN_POINT('',(0.08382,0.09525,-0.0937768));
#1324=CARTESIAN_POINT('',(-1.38777878078145E-17,0.09525,-0.0937768));
#1325=CARTESIAN_POINT('',(-0.08382,0.09525,-0.0937768));
#1326=CARTESIAN_POINT('',(-0.08382,0.08382,-0.0937768));
#1327=CARTESIAN_POINT('',(-0.09525,0.08382,-0.0937768));
#1328=CARTESIAN_POINT('',(-0.09525,1.38777878078145E-17,-0.0937768));
#1329=CARTESIAN_POINT('',(-0.09525,-0.123627196455002,-0.0937768));
#1330=CARTESIAN_POINT('',(-0.08382,-0.123627196455002,-0.0937768));
#1331=CARTESIAN_POINT('',(-0.08382,-0.135057196455002,-0.0937768));
#1332=CARTESIAN_POINT('',(1.38777878078145E-17,-0.135057196455002,-0.0937768));
#1333=CARTESIAN_POINT('',(0.,5.05702004589345E-18,-0.0937768));
#1334=CARTESIAN_POINT('',(0.0825874047833929,5.05702004589345E-18,-0.0937768));
#1335=CARTESIAN_POINT('',(0.,1.38777878078145E-17,-0.102362));
#1336=CARTESIAN_POINT('',(0.0155008025467396,-0.0913833975791931,-0.102362));
#1337=CARTESIAN_POINT('',(0.0172046091467396,-0.0913833975791931,-0.102362));
#1338=CARTESIAN_POINT('',(-0.01549974642694,-0.0913829356431961,-0.102362));
#1339=CARTESIAN_POINT('',(-0.01379593982694,-0.0913829356431961,-0.102362));
#1340=CARTESIAN_POINT('',(-0.0154999168589711,-0.122383192181587,-0.102362));
#1341=CARTESIAN_POINT('',(-0.0137961102589711,-0.122383192181587,-0.102362));
#1342=CARTESIAN_POINT('',(0.0155001133680343,-0.122383370995522,-0.102362));
#1343=CARTESIAN_POINT('',(0.0172039199680343,-0.122383370995522,-0.102362));
#1344=CARTESIAN_POINT('',(0.09525,1.38777878078145E-17,-0.102362));
#1345=CARTESIAN_POINT('',(0.09525,0.08382,-0.102362));
#1346=CARTESIAN_POINT('',(0.09525,-0.123627196455002,-0.102362));
#1347=CARTESIAN_POINT('',(0.08382,-0.123627196455002,-0.102362));
#1348=CARTESIAN_POINT('',(0.08382,-0.135057196455002,-0.102362));
#1349=CARTESIAN_POINT('',(1.38777878078145E-17,-0.135057196455002,-0.102362));
#1350=CARTESIAN_POINT('',(-0.08382,-0.135057196455002,-0.102362));
#1351=CARTESIAN_POINT('',(-0.08382,-0.123627196455002,-0.102362));
#1352=CARTESIAN_POINT('',(-0.09525,-0.123627196455002,-0.102362));
#1353=CARTESIAN_POINT('',(-0.09525,1.38777878078145E-17,-0.102362));
#1354=CARTESIAN_POINT('',(-0.09525,0.08382,-0.102362));
#1355=CARTESIAN_POINT('',(-0.08382,0.08382,-0.102362));
#1356=CARTESIAN_POINT('',(-0.08382,0.09525,-0.102362));
#1357=CARTESIAN_POINT('',(-1.38777878078145E-17,0.09525,-0.102362));
#1358=CARTESIAN_POINT('',(0.08382,0.09525,-0.102362));
#1359=CARTESIAN_POINT('',(0.08382,0.08382,-0.102362));
#1360=CARTESIAN_POINT('',(-1.43303632235026E-6,1.13436505424685E-5,-0.102362));
#1361=CARTESIAN_POINT('',(0.00862046462854328,1.13436505424685E-5,-0.102362));
#1362=CARTESIAN_POINT('',(0.01384,-0.0049104,-0.102362));
#1363=CARTESIAN_POINT('',(0.0155248709,-0.0049104,-0.102362));
#1364=CARTESIAN_POINT('',(0.01384,0.0050896,-0.102362));
#1365=CARTESIAN_POINT('',(0.0155248710987045,0.0050896,-0.102362));
#1366=CARTESIAN_POINT('',(-0.000507324322914652,7.11154965704235E-5,-0.102362));
#1367=CARTESIAN_POINT('',(0.0094956106920057,0.0714301367835746,-0.102362));
#1368=CARTESIAN_POINT('',(0.00419054171465219,0.0335847914405,-0.102362));
#1369=CARTESIAN_POINT('',(0.00702611019958905,0.0717763053898621,-0.102362));
#1370=CARTESIAN_POINT('',(0.00702611019958905,0.0742699503898621,-0.102362));
#1371=CARTESIAN_POINT('',(0.,0.0742699503898621,-0.102362));
#1372=CARTESIAN_POINT('',(-0.00702611019958905,0.0742699503898621,-0.102362));
#1373=CARTESIAN_POINT('',(-0.00702611019958905,0.0717763053898621,-0.102362));
#1374=CARTESIAN_POINT('',(-0.0094956106920057,0.0714301367835746,-0.102362));
#1375=CARTESIAN_POINT('',(0.000507324322914635,7.1115496570421E-5,-0.102362));
#1376=CARTESIAN_POINT('',(-0.00419054171465219,0.0335847914404998,-0.102362));
#1377=CARTESIAN_POINT('',(-0.00172104122223555,0.0339309600467873,-0.102362));
#1378=CARTESIAN_POINT('',(-0.00172104122223551,0.0314373150467873,-0.102362));
#1379=CARTESIAN_POINT('',(-5.70370342742309E-16,0.0314373150467874,-0.102362));
#1380=CARTESIAN_POINT('',(0.00172104122223558,0.0314373150467874,-0.102362));
#1381=CARTESIAN_POINT('',(0.00172104122223556,0.0339309600467874,-0.102362));
#1382=CARTESIAN_POINT('',(0.09525,1.38777878078145E-17,-0.0937768));
#1383=CARTESIAN_POINT('',(0.09525,0.08382,-0.0937768));
#1384=CARTESIAN_POINT('',(0.09525,-0.123627196455002,-0.102362));
#1385=CARTESIAN_POINT('',(0.08382,0.08382,-0.0937768));
#1386=CARTESIAN_POINT('',(0.08382,0.09525,-0.0937768));
#1387=CARTESIAN_POINT('',(-1.38777878078145E-17,0.09525,-0.0937768));
#1388=CARTESIAN_POINT('',(-0.08382,0.09525,-0.0937768));
#1389=CARTESIAN_POINT('',(-0.08382,0.08382,-0.0937768));
#1390=CARTESIAN_POINT('',(-0.09525,0.08382,-0.0937768));
#1391=CARTESIAN_POINT('',(-0.09525,1.38777878078145E-17,-0.0937768));
#1392=CARTESIAN_POINT('',(-0.09525,-0.123627196455002,-0.102362));
#1393=CARTESIAN_POINT('',(0.00684307620332895,0.0525074641120373,-0.194818));
#1394=CARTESIAN_POINT('',(0.0094956106920057,0.0714301367835746,-0.194818));
#1395=CARTESIAN_POINT('',(0.00419054171465219,0.0335847914405,-0.194818));
#1396=CARTESIAN_POINT('',(0.00702611019958905,0.0717763053898621,-0.194818));
#1397=CARTESIAN_POINT('',(0.00702611019958905,0.0742699503898621,-0.194818));
#1398=CARTESIAN_POINT('',(-1.7347234759768E-18,0.0742699503898621,-0.194818));
#1399=CARTESIAN_POINT('',(-0.00702611019958905,0.0742699503898621,-0.194818));
#1400=CARTESIAN_POINT('',(-0.00702611019958905,0.0717763053898621,-0.194818));
#1401=CARTESIAN_POINT('',(-0.0094956106920057,0.0714301367835746,-0.194818));
#1402=CARTESIAN_POINT('',(-0.00684307620332895,0.0525074641120372,-0.194818));
#1403=CARTESIAN_POINT('',(-0.00419054171465219,0.0335847914404998,-0.194818));
#1404=CARTESIAN_POINT('',(-0.00172104122223555,0.0339309600467873,-0.194818));
#1405=CARTESIAN_POINT('',(-0.00172104122223551,0.0314373150467873,-0.194818));
#1406=CARTESIAN_POINT('',(2.3635607360184E-17,0.0314373150467874,-0.194818));
#1407=CARTESIAN_POINT('',(0.00172104122223558,0.0314373150467874,-0.194818));
#1408=CARTESIAN_POINT('',(0.00172104122223556,0.0339309600467874,-0.194818));
#1409=CARTESIAN_POINT('',(0.,-4.6167100415772E-18,-0.0937766222));
#1410=CARTESIAN_POINT('',(0.,-4.6167100415772E-18,-0.0999996222));
#1411=CARTESIAN_POINT('',(-0.0753965967132978,-4.6167100415772E-18,-0.0999996222));
#1412=CARTESIAN_POINT('',(0.,0.,-0.0999996222));
#1413=CARTESIAN_POINT('',(0.,5.05702004589345E-18,-0.0999996222));
#1414=CARTESIAN_POINT('',(0.0825874047833929,5.05702004589345E-18,-0.0999996222));
#1415=CARTESIAN_POINT('',(0.,5.05702004589345E-18,-0.0999996222));
#1416=CARTESIAN_POINT('',(0.,-1.91401763911718E-18,-0.0937766222));
#1417=CARTESIAN_POINT('',(0.,-1.91401763911718E-18,-0.1018034032));
#1418=CARTESIAN_POINT('',(-0.0312582801906606,-1.91401763911718E-18,-0.1018034032));
#1419=CARTESIAN_POINT('',(0.,0.,-0.1018034032));
#1420=CARTESIAN_POINT('',(-1.4330363223502E-6,1.13436505424685E-5,-0.1018034032));
#1421=CARTESIAN_POINT('',(0.00862046462854328,1.13436505424685E-5,-0.1018034032));
#1422=CARTESIAN_POINT('',(0.01384,-0.0049104,-0.1018034032));
#1423=CARTESIAN_POINT('',(0.0155248709,-0.0049104,-0.1018034032));
#1424=CARTESIAN_POINT('',(0.01384,0.0050896,-0.1018034032));
#1425=CARTESIAN_POINT('',(0.0155248710987045,0.0050896,-0.1018034032));
#1426=CARTESIAN_POINT('',(0.01384,0.0050896,-0.0782960750610684));
#1427=CARTESIAN_POINT('',(0.01384,-0.0049104,-0.0782960750610684));
#1428=CARTESIAN_POINT('',(0.,1.38777878078145E-17,-0.0999620048));
#1429=CARTESIAN_POINT('',(-0.03416,-0.0049104,-0.0999620048));
#1430=CARTESIAN_POINT('',(-0.0311509678613487,-0.0049104,-0.0999620048));
#1431=CARTESIAN_POINT('',(-0.03416,-0.0049104,-0.0999620048));
#1432=CARTESIAN_POINT('',(-0.0337431081654461,-0.00193038731383257,-0.0968694024));
#1433=CARTESIAN_POINT('',(-0.0337431081654461,-0.00193038731383259,-0.0963168));
#1434=CARTESIAN_POINT('',(-0.0337431081654461,-0.00193038731383259,-0.099822));
#1435=CARTESIAN_POINT('',(-0.03416,-0.0049104,-0.099822));
#1436=CARTESIAN_POINT('',(-0.0329205963646918,-0.00765232506101494,-0.099822));
#1437=CARTESIAN_POINT('',(-0.0329205963646918,-0.00765232506101492,-0.0968694024));
#1438=CARTESIAN_POINT('',(-0.0329205963646918,-0.00765232506101494,-0.0963168));
#1439=CARTESIAN_POINT('',(-0.03416,-0.0049104,-0.0963168));
#1440=CARTESIAN_POINT('',(0.,1.38777878078145E-17,-0.0999620048));
#1441=CARTESIAN_POINT('',(-0.03416,0.0050896,-0.0999620048));
#1442=CARTESIAN_POINT('',(-0.0311614632282667,0.0050896,-0.0999620048));
#1443=CARTESIAN_POINT('',(-0.03416,0.0050896,-0.0999620048));
#1444=CARTESIAN_POINT('',(-0.03416,0.0050896,-0.099822));
#1445=CARTESIAN_POINT('',(-0.0328850672465987,0.00780359507106067,-0.099822));
#1446=CARTESIAN_POINT('',(-0.0337316115107996,0.00212182203091984,-0.099822));
#1447=CARTESIAN_POINT('',(-0.0337316115107996,0.00212182203091984,-0.0968694024));
#1448=CARTESIAN_POINT('',(-0.0337316115107996,0.00212182203091985,-0.0963168));
#1449=CARTESIAN_POINT('',(-0.03416,0.0050896,-0.0963168));
#1450=CARTESIAN_POINT('',(-0.0328850672465987,0.00780359507106066,-0.0963168));
#1451=CARTESIAN_POINT('',(-0.0328850672465987,0.00780359507106067,-0.0968694024));
#1452=CARTESIAN_POINT('',(-0.00172104122223555,0.0339309600467873,-0.194818));
#1453=CARTESIAN_POINT('',(-0.00172104122223555,0.0339309600467873,-0.0963168));
#1454=CARTESIAN_POINT('',(-0.00670594837868747,0.0332321878181037,-0.0963168));
#1455=CARTESIAN_POINT('',(-0.00669046639197113,0.0331294642773515,-0.0963168));
#1456=CARTESIAN_POINT('',(-0.00670594837868747,0.0332321878181037,-0.194818));
#1457=CARTESIAN_POINT('',(-0.00670594837868747,0.0332321878181037,-0.099822));
#1458=CARTESIAN_POINT('',(-0.00172104122223555,0.0339309600467873,-0.099822));
#1459=CARTESIAN_POINT('',(-0.00669046639197113,0.0331294642773515,-0.099822));
#1460=CARTESIAN_POINT('',(-0.00669046639197113,0.0331294642773515,-0.0937766222));
#1461=CARTESIAN_POINT('',(-0.00935848286736423,0.0521548604896411,-0.194818));
#1462=CARTESIAN_POINT('',(-0.00200808234112064,-0.00028148812582574,-0.0963168));
#1463=CARTESIAN_POINT('',(-0.012011017356041,0.0710775331611785,-0.0963168));
#1464=CARTESIAN_POINT('',(-0.012011017356041,0.0710775331611785,-0.194818));
#1465=CARTESIAN_POINT('',(-0.012011017356041,0.0710775331611785,-0.099822));
#1466=CARTESIAN_POINT('',(-0.00200808234112064,-0.00028148812582574,-0.099822));
#1467=CARTESIAN_POINT('',(-0.00702611019958905,0.0717763053898621,-0.194818));
#1468=CARTESIAN_POINT('',(-0.00702611019958905,0.0717763053898621,-0.099822));
#1469=CARTESIAN_POINT('',(-0.0120591912831878,0.0718516498783403,-0.099822));
#1470=CARTESIAN_POINT('',(-0.00702611019958905,0.0717763053898621,-0.0963168));
#1471=CARTESIAN_POINT('',(-0.0120591912831879,0.0718516498783403,-0.0963168));
#1472=CARTESIAN_POINT('',(-0.0120591912831878,0.0718516498783403,-0.194818));
#1473=CARTESIAN_POINT('',(0.,-4.6167100415772E-18,-0.0937766222));
#1474=CARTESIAN_POINT('',(0.,-4.6167100415772E-18,-0.099822));
#1475=CARTESIAN_POINT('',(0.0120591912831879,0.0718516498783403,-0.099822));
#1476=CARTESIAN_POINT('',(0.,-4.6167100415772E-18,-0.0963168));
#1477=CARTESIAN_POINT('',(0.0120591912831879,0.0718516498783403,-0.0963168));
#1478=CARTESIAN_POINT('',(0.0120591912831879,0.0718516498783403,-0.0937766222));
#1479=CARTESIAN_POINT('',(0.00702611019958905,0.0717763053898621,-0.194818));
#1480=CARTESIAN_POINT('',(0.00702611019958905,0.0717763053898621,-0.0963168));
#1481=CARTESIAN_POINT('',(0.012011017356041,0.0710775331611785,-0.0963168));
#1482=CARTESIAN_POINT('',(0.012011017356041,0.0710775331611785,-0.194818));
#1483=CARTESIAN_POINT('',(0.012011017356041,0.0710775331611785,-0.099822));
#1484=CARTESIAN_POINT('',(0.00702611019958905,0.0717763053898621,-0.099822));
#1485=CARTESIAN_POINT('',(0.00935848286736423,0.0521548604896411,-0.194818));
#1486=CARTESIAN_POINT('',(0.00200808234112063,-0.000281488125825738,-0.0963168));
#1487=CARTESIAN_POINT('',(0.00670594837868747,0.0332321878181037,-0.0963168));
#1488=CARTESIAN_POINT('',(0.00670594837868747,0.0332321878181037,-0.194818));
#1489=CARTESIAN_POINT('',(0.00670594837868747,0.0332321878181037,-0.099822));
#1490=CARTESIAN_POINT('',(0.00200808234112063,-0.000281488125825738,-0.099822));
#1491=CARTESIAN_POINT('',(0.00172104122223556,0.0339309600467874,-0.194818));
#1492=CARTESIAN_POINT('',(0.00669046639197113,0.0331294642773515,-0.194818));
#1493=CARTESIAN_POINT('',(0.00669046639197113,0.0331294642773515,-0.0963168));
#1494=CARTESIAN_POINT('',(0.00669046639197113,0.0331294642773515,-0.099822));
#1495=CARTESIAN_POINT('',(0.00172104122223556,0.0339309600467874,-0.099822));
#1496=CARTESIAN_POINT('',(0.00172104122223556,0.0339309600467874,-0.0963168));
#1497=CARTESIAN_POINT('',(0.,-1.91401763911718E-18,-0.0937766222));
#1498=CARTESIAN_POINT('',(0.,-1.91401763911718E-18,-0.099822));
#1499=CARTESIAN_POINT('',(0.,-1.91401763911718E-18,-0.0963168));
#1500=CARTESIAN_POINT('',(0.,1.38777878078145E-17,-0.0963168));
#1501=CARTESIAN_POINT('',(0.,-1.91401763911718E-18,-0.0963168));
#1502=CARTESIAN_POINT('',(0.,-1.91401763911718E-18,-0.0963168));
#1503=CARTESIAN_POINT('',(0.,1.38777878078145E-17,-0.099822));
#1504=CARTESIAN_POINT('',(0.,-1.91401763911718E-18,-0.099822));
#1505=CARTESIAN_POINT('',(0.,-1.91401763911718E-18,-0.099822));
#1506=CARTESIAN_POINT('',(0.,-1.91401763911718E-18,-0.0937766222));
#1507=CARTESIAN_POINT('',(0.,-1.91401763911718E-18,-0.0937766222));
#1508=CARTESIAN_POINT('',(-1.43303632233925E-6,1.13436505424706E-5,0.00489040001490111));
#1509=CARTESIAN_POINT('',(-0.08382,-0.123627196455002,-0.102362));
#1510=CARTESIAN_POINT('',(-0.08382,-0.135057196455002,-0.102362));
#1511=CARTESIAN_POINT('',(1.38777878078145E-17,-0.135057196455002,-0.102362));
#1512=CARTESIAN_POINT('',(0.08382,-0.135057196455002,-0.102362));
#1513=CARTESIAN_POINT('',(0.08382,-0.123627196455002,-0.102362));
#1514=CARTESIAN_POINT('',(0.0155001133680343,-0.122383370995522,-0.1191768));
#1515=CARTESIAN_POINT('',(-0.0154999168589711,-0.122383192181587,-0.1191768));
#1516=CARTESIAN_POINT('',(-0.01549974642694,-0.0913829356431961,-0.1191768));
#1517=CARTESIAN_POINT('',(0.0155008025467396,-0.0913833975791931,-0.1191768));
#1518=MECHANICAL_DESIGN_GEOMETRIC_PRESENTATION_REPRESENTATION('',(#871),
#1519);
#1519=(
GEOMETRIC_REPRESENTATION_CONTEXT(3)
GLOBAL_UNCERTAINTY_ASSIGNED_CONTEXT((#1520))
GLOBAL_UNIT_ASSIGNED_CONTEXT((#1523,#1522,#1521))
REPRESENTATION_CONTEXT('Part 3','TOP_LEVEL_ASSEMBLY_PART')
);
#1520=UNCERTAINTY_MEASURE_WITH_UNIT(LENGTH_MEASURE(2.E-5),#1523,
'DISTANCE_ACCURACY_VALUE','Maximum Tolerance applied to model');
#1521=(
NAMED_UNIT(*)
SI_UNIT($,.STERADIAN.)
SOLID_ANGLE_UNIT()
);
#1522=(
NAMED_UNIT(*)
PLANE_ANGLE_UNIT()
SI_UNIT($,.RADIAN.)
);
#1523=(
LENGTH_UNIT()
NAMED_UNIT(*)
SI_UNIT($,.METRE.)
);
#1524=PRODUCT_DEFINITION_SHAPE('','',#1525);
#1525=PRODUCT_DEFINITION('','',#1527,#1526);
#1526=PRODUCT_DEFINITION_CONTEXT('',#1533,'design');
#1527=PRODUCT_DEFINITION_FORMATION_WITH_SPECIFIED_SOURCE('','',#1529,
 .NOT_KNOWN.);
#1528=PRODUCT_RELATED_PRODUCT_CATEGORY('','',(#1529));
#1529=PRODUCT('Part 3','Part 3','Part 3',(#1531));
#1530=PRODUCT_CATEGORY('','');
#1531=PRODUCT_CONTEXT('',#1533,'mechanical');
#1532=APPLICATION_PROTOCOL_DEFINITION('international standard',
'ap242_managed_model_based_3d_engineering',2020,#1533);
#1533=APPLICATION_CONTEXT('managed model based 3d engineering');
ENDSEC;
END-ISO-10303-21;
